<svg width="10" height="8" fill="none" xmlns="http://www.w3.org/2000/svg"><g clip-path="url(#clip0_1497_5919)"><rect y=".5" width="10" height="7" rx=".909" fill="#1A47B8"/><path fill-rule="evenodd" clip-rule="evenodd" d="M1.064.5H0v1.167L8.93 7.5H10V6.333L1.064.5z" fill="#fff"/><path d="M.355.5L10 6.817V7.5h-.346L0 1.177V.5h.355z" fill="#F93939"/><path fill-rule="evenodd" clip-rule="evenodd" d="M9.048.5H10v1.167S3.814 5.553.952 7.5H0V6.333L9.048.5z" fill="#fff"/><path d="M10 .5h-.323L0 6.822V7.5h.355L10 1.182V.5z" fill="#F93939"/><path fill-rule="evenodd" clip-rule="evenodd" d="M3.637.5h2.735v2.16H10v2.68H6.372V7.5H3.637V5.34H0V2.66h3.637V.5z" fill="#fff"/><path fill-rule="evenodd" clip-rule="evenodd" d="M4.21.5h1.58v2.692H10v1.616H5.79V7.5H4.21V4.808H0V3.192h4.21V.5z" fill="#F93939"/></g><defs><clipPath id="clip0_1497_5919"><rect y=".5" width="10" height="7" rx=".909" fill="#fff"/></clipPath></defs></svg>