<svg width="10" height="8" fill="none" xmlns="http://www.w3.org/2000/svg"><path fill="#1E1E1E" d="M0 0h10v8H0z"/><path d="M-1256-168c0-1.105.9-2 2-2h3146c1.1 0 2 .895 2 2v2615c0 1.1-.9 2-2 2h-3146c-1.1 0-2-.9-2-2V-168z" fill="#404040"/><path fill="#F3F3F3" d="M-1148-23H292V85h-1440z"/><path fill="#E8E8E8" d="M-1148-23H292v54h-1440z"/><g clip-path="url(#clip0_1495_3113)"><g clip-path="url(#clip1_1495_3113)"><rect y=".5" width="10" height="7" rx=".909" fill="#1A47B8"/><path fill-rule="evenodd" clip-rule="evenodd" d="M0 5.167h10V7.5H0V5.167z" fill="#F93939"/><path fill-rule="evenodd" clip-rule="evenodd" d="M0 .5h10v2.333H0V.5z" fill="#fff"/></g></g><rect x="-40.5" y="-11.5" width="66" height="31" rx="11.5" stroke="#A0A0A0"/><path d="M-1254-169h3146v-2h-3146v2zm3147 1v2615h2V-168h-2zm-1 2616h-3146v2h3146v-2zm-3147-1V-168h-2v2615h2zm1 1c-.55 0-1-.45-1-1h-2c0 1.66 1.34 3 3 3v-2zm3147-1c0 .55-.45 1-1 1v2c1.66 0 3-1.34 3-3h-2zm-1-2616c.55 0 1 .448 1 1h2c0-1.657-1.34-3-3-3v2zm-3146-2c-1.66 0-3 1.343-3 3h2c0-.552.45-1 1-1v-2z" fill="#fff" fill-opacity=".1"/><defs><clipPath id="clip0_1495_3113"><path fill="#fff" transform="translate(0 .5)" d="M0 0h10v7H0z"/></clipPath><clipPath id="clip1_1495_3113"><rect y=".5" width="10" height="7" rx=".909" fill="#fff"/></clipPath></defs></svg>