<svg width="18" height="18" viewBox="0 0 18 18" fill="none" xmlns="http://www.w3.org/2000/svg">
<path d="M14.3182 5.75H11.4205V5.45C11.4205 3.545 9.66477 2 7.5 2C5.33523 2 3.57955 3.545 3.57955 5.45V5.75H0.681818C0.304688 5.75 0 6.01813 0 6.35V16.4C0 16.7319 0.304688 17 0.681818 17H14.3182C14.6953 17 15 16.7319 15 16.4V6.35C15 6.01813 14.6953 5.75 14.3182 5.75ZM5.11364 5.45C5.11364 4.28938 6.18111 3.35 7.5 3.35C8.81889 3.35 9.88636 4.28938 9.88636 5.45V5.75H5.11364V5.45ZM13.4659 15.65H1.53409V7.1H3.57955V8.75C3.57955 8.8325 3.65625 8.9 3.75 8.9H4.94318C5.03693 8.9 5.11364 8.8325 5.11364 8.75V7.1H9.88636V8.75C9.88636 8.8325 9.96307 8.9 10.0568 8.9H11.25C11.3438 8.9 11.4205 8.8325 11.4205 8.75V7.1H13.4659V15.65Z" fill="#282828"/>
</svg>
