<svg width="15" height="16" viewBox="0 0 15 16" fill="none" xmlns="http://www.w3.org/2000/svg">
<path d="M10.6305 5.33765H9.84538C9.67462 5.33765 9.51223 5.41968 9.41178 5.5603L6.78009 9.20986L5.58812 7.55584C5.48767 7.41689 5.32696 7.33318 5.15453 7.33318H4.36937C4.26055 7.33318 4.19694 7.45707 4.26055 7.54579L6.34649 10.4387C6.39577 10.5074 6.46073 10.5635 6.53599 10.6021C6.61125 10.6408 6.69464 10.661 6.77925 10.661C6.86386 10.661 6.94725 10.6408 7.02251 10.6021C7.09777 10.5635 7.16273 10.5074 7.212 10.4387L10.7377 5.55026C10.803 5.46153 10.7393 5.33765 10.6305 5.33765Z" fill="#282828"/>
<path d="M7.5 0.5C3.35826 0.5 0 3.85826 0 8C0 12.1417 3.35826 15.5 7.5 15.5C11.6417 15.5 15 12.1417 15 8C15 3.85826 11.6417 0.5 7.5 0.5ZM7.5 14.2277C4.06138 14.2277 1.27232 11.4386 1.27232 8C1.27232 4.56138 4.06138 1.77232 7.5 1.77232C10.9386 1.77232 13.7277 4.56138 13.7277 8C13.7277 11.4386 10.9386 14.2277 7.5 14.2277Z" fill="#282828"/>
</svg>
