<svg width="15" height="16" viewBox="0 0 15 16" fill="none" xmlns="http://www.w3.org/2000/svg">
<g clip-path="url(#clip0_1806_19064)">
<path fill-rule="evenodd" clip-rule="evenodd" d="M10.5 5.75C10.5 7.40685 9.15685 8.75 7.5 8.75C5.84315 8.75 4.5 7.40685 4.5 5.75C4.5 4.09315 5.84315 2.75 7.5 2.75C9.15685 2.75 10.5 4.09315 10.5 5.75ZM9.75 5.75C9.75 6.99264 8.74264 8 7.5 8C6.25736 8 5.25 6.99264 5.25 5.75C5.25 4.50736 6.25736 3.5 7.5 3.5C8.74264 3.5 9.75 4.50736 9.75 5.75Z" fill="black"/>
<path fill-rule="evenodd" clip-rule="evenodd" d="M15 8C15 9.68841 14.4421 11.2465 13.5005 12.5C13.4315 12.5919 13.3604 12.6821 13.2874 12.7707C11.9118 14.4376 9.82995 15.5 7.5 15.5C5.04628 15.5 2.86777 14.3217 1.49946 12.5C0.557921 11.2465 0 9.68841 0 8C0 3.85786 3.35786 0.5 7.5 0.5C11.6421 0.5 15 3.85786 15 8ZM7.5 14.75L7.51204 14.75C9.50634 14.7465 11.2978 13.8782 12.5313 12.5C11.2944 11.118 9.49866 10.25 7.5 10.25C5.50134 10.25 3.70559 11.118 2.46874 12.5C3.70223 13.8782 5.49366 14.7465 7.48796 14.75L7.5 14.75ZM7.5 9.5C9.67584 9.5 11.6353 10.4266 13.0053 11.9066C13.7891 10.804 14.25 9.45584 14.25 8C14.25 4.27208 11.2279 1.25 7.5 1.25C3.77208 1.25 0.75 4.27208 0.75 8C0.75 9.45584 1.21089 10.804 1.99472 11.9066C3.36472 10.4266 5.32415 9.5 7.5 9.5Z" fill="black"/>
</g>
<defs>
<clipPath id="clip0_1806_19064">
<rect width="15" height="15" fill="white" transform="translate(0 0.5)"/>
</clipPath>
</defs>
</svg>
