<svg width="15" height="16" viewBox="0 0 15 16" fill="none" xmlns="http://www.w3.org/2000/svg">
<path fill-rule="evenodd" clip-rule="evenodd" d="M5.25 8.5C5.25 7.25736 6.25736 6.25 7.5 6.25C8.74264 6.25 9.75 7.25736 9.75 8.5C9.75 9.74264 8.74264 10.75 7.5 10.75C6.25736 10.75 5.25 9.74264 5.25 8.5ZM7.5 10C6.67157 10 6 9.32843 6 8.5C6 7.67157 6.67157 7 7.5 7C8.32843 7 9 7.67157 9 8.5C9 9.32843 8.32843 10 7.5 10Z" fill="black"/>
<path fill-rule="evenodd" clip-rule="evenodd" d="M11.2123 2.66641C11.5052 2.37351 11.9801 2.37351 12.273 2.66641L13.3336 3.72707C13.6265 4.01996 13.6265 4.49483 13.3336 4.78773C12.5173 5.60411 13.0955 7 14.25 7C14.6642 7 15 7.33579 15 7.75V9.25C15 9.66421 14.6642 10 14.25 10C13.0955 10 12.5173 11.3959 13.3337 12.2123C13.6266 12.5052 13.6266 12.9801 13.3337 13.273L12.273 14.3336C11.9801 14.6265 11.5052 14.6265 11.2123 14.3336C10.3959 13.5172 9 14.0954 9 15.25C9 15.6642 8.66421 16 8.25 16H6.75C6.33579 16 6 15.6642 6 15.25C6 14.0955 4.60408 13.5173 3.78769 14.3337C3.4948 14.6266 3.01993 14.6266 2.72703 14.3337L1.66637 13.273C1.37348 12.9801 1.37348 12.5052 1.66637 12.2123C2.48278 11.3959 1.90458 10 0.75 10C0.335787 10 0 9.66421 0 9.25V7.75C0 7.33579 0.335786 7 0.75 7C1.90456 7 2.48281 5.60408 1.66641 4.78768C1.37351 4.49479 1.37351 4.01992 1.66641 3.72702L2.72707 2.66636C3.01996 2.37347 3.49483 2.37347 3.78773 2.66636C4.60411 3.48275 6 2.90454 6 1.75C6 1.33579 6.33579 1 6.75 1H8.25C8.66421 1 9 1.33579 9 1.75C9 2.90456 10.3959 3.48281 11.2123 2.66641ZM0.75 7.75C2.5727 7.75 3.48564 5.54626 2.19674 4.25735L3.2574 3.19669C4.54627 4.48556 6.75 3.57271 6.75 1.75L8.25 1.75C8.25 3.5727 10.4537 4.48564 11.7426 3.19674L12.8033 4.2574C11.5144 5.54627 12.4273 7.75 14.25 7.75V9.25C12.4272 9.25 11.5145 11.4538 12.8033 12.7426L11.7427 13.8033C10.4538 12.5144 8.25 13.4272 8.25 15.25H6.75C6.75 13.4272 4.54619 12.5145 3.25736 13.8033L2.1967 12.7427C3.48558 11.4538 2.57277 9.25 0.75 9.25V7.75Z" fill="black"/>
</svg>
