<svg width="25" height="24" viewBox="0 0 25 24" fill="none" xmlns="http://www.w3.org/2000/svg">
<path d="M12.3335 6L11.261 7.04475L15.446 11.25H6.3335V12.75H15.446L11.261 16.9298L12.3335 18L18.3335 12L12.3335 6Z" fill="black"/>
<path d="M12.3335 22.5C10.2568 22.5 8.22673 21.8842 6.50001 20.7304C4.7733 19.5767 3.42749 17.9368 2.63277 16.0182C1.83805 14.0996 1.63011 11.9884 2.03526 9.95156C2.4404 7.91476 3.44043 6.04383 4.90888 4.57538C6.37733 3.10693 8.24825 2.1069 10.2851 1.70176C12.3219 1.29661 14.4331 1.50455 16.3517 2.29927C18.2703 3.09399 19.9102 4.4398 21.0639 6.16652C22.2177 7.89323 22.8335 9.9233 22.8335 12C22.8303 14.7838 21.7231 17.4527 19.7546 19.4211C17.7862 21.3896 15.1173 22.4968 12.3335 22.5ZM12.3335 3C10.5535 3 8.81341 3.52785 7.33337 4.51678C5.85333 5.50571 4.69977 6.91132 4.01858 8.55585C3.3374 10.2004 3.15917 12.01 3.50643 13.7558C3.8537 15.5016 4.71087 17.1053 5.96954 18.364C7.22821 19.6226 8.83186 20.4798 10.5777 20.8271C12.3235 21.1743 14.1331 20.9961 15.7777 20.3149C17.4222 19.6337 18.8278 18.4802 19.8167 17.0001C20.8057 15.5201 21.3335 13.78 21.3335 12C21.3307 9.61391 20.3816 7.32634 18.6944 5.63911C17.0072 3.95189 14.7196 3.00278 12.3335 3Z" fill="black"/>
</svg>
