<svg width="25" height="24" viewBox="0 0 25 24" fill="none" xmlns="http://www.w3.org/2000/svg">
<path d="M7.8335 10.5C8.66192 10.5 9.3335 9.82843 9.3335 9C9.3335 8.17157 8.66192 7.5 7.8335 7.5C7.00507 7.5 6.3335 8.17157 6.3335 9C6.3335 9.82843 7.00507 10.5 7.8335 10.5Z" fill="black"/>
<path d="M12.3335 8.25C13.1619 8.25 13.8335 7.57843 13.8335 6.75C13.8335 5.92157 13.1619 5.25 12.3335 5.25C11.5051 5.25 10.8335 5.92157 10.8335 6.75C10.8335 7.57843 11.5051 8.25 12.3335 8.25Z" fill="black"/>
<path d="M16.8335 10.5C17.6619 10.5 18.3335 9.82843 18.3335 9C18.3335 8.17157 17.6619 7.5 16.8335 7.5C16.0051 7.5 15.3335 8.17157 15.3335 9C15.3335 9.82843 16.0051 10.5 16.8335 10.5Z" fill="black"/>
<path d="M17.5835 15C18.4119 15 19.0835 14.3284 19.0835 13.5C19.0835 12.6716 18.4119 12 17.5835 12C16.7551 12 16.0835 12.6716 16.0835 13.5C16.0835 14.3284 16.7551 15 17.5835 15Z" fill="black"/>
<path d="M14.5835 18.75C15.4119 18.75 16.0835 18.0784 16.0835 17.25C16.0835 16.4216 15.4119 15.75 14.5835 15.75C13.7551 15.75 13.0835 16.4216 13.0835 17.25C13.0835 18.0784 13.7551 18.75 14.5835 18.75Z" fill="black"/>
<path d="M12.7385 1.5C11.3259 1.44548 9.91687 1.67675 8.59584 2.17996C7.2748 2.68316 6.06898 3.44794 5.05066 4.42844C4.03234 5.40894 3.22249 6.58497 2.66967 7.88603C2.11686 9.18708 1.83245 10.5864 1.8335 12C1.83346 12.556 1.96167 13.1045 2.20816 13.6029C2.45464 14.1012 2.81277 14.536 3.25467 14.8735C3.69657 15.2109 4.21035 15.4418 4.75605 15.5483C5.30174 15.6548 5.86465 15.634 6.401 15.4875L7.241 15.255C7.57516 15.1638 7.92586 15.151 8.26579 15.2175C8.60572 15.2841 8.9257 15.4282 9.20079 15.6387C9.47588 15.8492 9.69866 16.1203 9.85177 16.431C10.0049 16.7418 10.0842 17.0836 10.0835 17.43V20.25C10.0835 20.8467 10.3206 21.419 10.7425 21.841C11.1645 22.2629 11.7368 22.5 12.3335 22.5C13.7471 22.5011 15.1464 22.2166 16.4475 21.6638C17.7485 21.111 18.9246 20.3012 19.9051 19.2828C20.8856 18.2645 21.6503 17.0587 22.1535 15.7377C22.6568 14.4166 22.888 13.0076 22.8335 11.595C22.7247 8.95251 21.6262 6.44755 19.7561 4.57744C17.886 2.70733 15.381 1.60882 12.7385 1.5ZM18.821 18.2325C17.9836 19.1093 16.9767 19.8067 15.8614 20.2825C14.7462 20.7582 13.546 21.0023 12.3335 21C12.1346 21 11.9438 20.921 11.8032 20.7803C11.6625 20.6397 11.5835 20.4489 11.5835 20.25V17.43C11.5835 16.4354 11.1884 15.4816 10.4851 14.7784C9.78189 14.0751 8.82806 13.68 7.8335 13.68C7.49649 13.6806 7.16105 13.726 6.836 13.815L5.996 14.0475C5.68226 14.1316 5.35337 14.1423 5.03483 14.0787C4.71629 14.0152 4.41666 13.8792 4.15918 13.6812C3.9017 13.4832 3.69329 13.2285 3.5501 12.937C3.40691 12.6454 3.33279 12.3248 3.3335 12C3.33257 10.7878 3.57651 9.588 4.05068 8.47244C4.52486 7.35688 5.2195 6.3486 6.09292 5.5081C6.96634 4.66759 8.00055 4.01219 9.1335 3.5812C10.2664 3.15021 11.4748 2.95253 12.686 3C14.9414 3.11747 17.0733 4.06625 18.6703 5.66322C20.2673 7.26018 21.216 9.39211 21.3335 11.6475C21.3851 12.8595 21.1889 14.0692 20.7569 15.2028C20.3249 16.3363 19.6662 17.3698 18.821 18.24V18.2325Z" fill="black"/>
</svg>
