<svg width="25" height="24" viewBox="0 0 25 24" fill="none" xmlns="http://www.w3.org/2000/svg">
<path d="M22.2411 3.19202C21.6771 2.61886 20.9157 2.28238 20.1122 2.25116C19.3086 2.21995 18.5234 2.49634 17.9166 3.02402C17.3098 2.49634 16.5246 2.21995 15.7211 2.25116C14.9176 2.28238 14.1562 2.61886 13.5921 3.19202C12.9992 3.79744 12.6671 4.61111 12.6671 5.45852C12.6671 6.30593 12.9992 7.1196 13.5921 7.72502L17.9151 12.105L17.9166 12.1035L17.9181 12.1043L22.2411 7.72502C22.8341 7.1196 23.1661 6.30593 23.1661 5.45852C23.1661 4.61111 22.8341 3.79744 22.2411 3.19202ZM21.1731 6.67127L17.9181 9.96902L17.9166 9.96752L17.9151 9.96902L14.6601 6.67127C14.3423 6.3476 14.1643 5.91212 14.1643 5.45852C14.1643 5.00491 14.3423 4.56943 14.6601 4.24577C14.9771 3.9377 15.4016 3.76536 15.8436 3.76536C16.2856 3.76536 16.7102 3.9377 17.0271 4.24577L17.9129 5.15102L17.9166 5.14727L17.9204 5.15102L18.8054 4.24577C19.1224 3.93748 19.5471 3.76499 19.9893 3.76499C20.4314 3.76499 20.8562 3.93748 21.1731 4.24577C21.4909 4.56943 21.669 5.00491 21.669 5.45852C21.669 5.91212 21.4909 6.3476 21.1731 6.67127ZM12.6666 22.5H11.1666V18.75C11.166 18.1535 10.9288 17.5815 10.507 17.1597C10.0851 16.7379 9.51318 16.5006 8.91663 16.5H5.91663C5.32007 16.5006 4.74812 16.7379 4.32629 17.1597C3.90447 17.5815 3.66722 18.1535 3.66663 18.75V22.5H2.16663V18.75C2.16782 17.7558 2.56329 16.8027 3.26629 16.0997C3.96929 15.3967 4.92243 15.0012 5.91663 15H8.91663C9.91082 15.0012 10.864 15.3967 11.567 16.0997C12.27 16.8027 12.6654 17.7558 12.6666 18.75V22.5ZM7.41663 7.50002C7.86163 7.50002 8.29665 7.63198 8.66666 7.87921C9.03667 8.12644 9.32506 8.47785 9.49536 8.88898C9.66565 9.30011 9.71021 9.75251 9.62339 10.189C9.53658 10.6254 9.32228 11.0263 9.00762 11.341C8.69295 11.6557 8.29204 11.87 7.85558 11.9568C7.41912 12.0436 6.96672 11.999 6.55559 11.8287C6.14445 11.6584 5.79305 11.3701 5.54582 11C5.29859 10.63 5.16663 10.195 5.16663 9.75002C5.16663 9.15328 5.40368 8.58098 5.82564 8.15903C6.24759 7.73707 6.81989 7.50002 7.41663 7.50002ZM7.41663 6.00002C6.67495 6.00002 5.94992 6.21995 5.33324 6.63201C4.71655 7.04406 4.23591 7.62973 3.95208 8.31495C3.66825 9.00018 3.59399 9.75418 3.73868 10.4816C3.88338 11.209 4.24053 11.8772 4.76498 12.4017C5.28942 12.9261 5.95761 13.2833 6.68504 13.428C7.41247 13.5727 8.16647 13.4984 8.85169 13.2146C9.53691 12.9307 10.1226 12.4501 10.5346 11.8334C10.9467 11.2167 11.1666 10.4917 11.1666 9.75002C11.1666 9.25756 11.0696 8.76993 10.8812 8.31495C10.6927 7.85998 10.4165 7.44659 10.0683 7.09837C9.72006 6.75015 9.30666 6.47392 8.85169 6.28547C8.39672 6.09701 7.90908 6.00002 7.41663 6.00002Z" fill="black"/>
</svg>
