<svg width="25" height="24" viewBox="0 0 25 24" fill="none" xmlns="http://www.w3.org/2000/svg">
<path d="M11.1666 15.1351L8.47413 12.4426L7.41663 13.5001L11.1666 17.2501L17.9166 10.5001L16.8591 9.43506L11.1666 15.1351Z" fill="black"/>
<path d="M19.4166 3.75H17.1666V3C17.1666 2.60218 17.0086 2.22064 16.7273 1.93934C16.446 1.65804 16.0645 1.5 15.6666 1.5H9.66663C9.2688 1.5 8.88727 1.65804 8.60597 1.93934C8.32466 2.22064 8.16663 2.60218 8.16663 3V3.75H5.91663C5.5188 3.75 5.13727 3.90804 4.85597 4.18934C4.57466 4.47064 4.41663 4.85218 4.41663 5.25V21C4.41663 21.3978 4.57466 21.7794 4.85597 22.0607C5.13727 22.342 5.5188 22.5 5.91663 22.5H19.4166C19.8145 22.5 20.196 22.342 20.4773 22.0607C20.7586 21.7794 20.9166 21.3978 20.9166 21V5.25C20.9166 4.85218 20.7586 4.47064 20.4773 4.18934C20.196 3.90804 19.8145 3.75 19.4166 3.75ZM9.66663 3H15.6666V6H9.66663V3ZM19.4166 21H5.91663V5.25H8.16663V7.5H17.1666V5.25H19.4166V21Z" fill="black"/>
</svg>
