<svg width="80" height="28" viewBox="0 0 80 28" fill="none" xmlns="http://www.w3.org/2000/svg">
<path d="M6.5634 3.80163C6.53312 3.42222 6.39118 3.12629 6.13758 2.91382C5.88776 2.70135 5.50735 2.59512 4.99636 2.59512C4.67084 2.59512 4.40399 2.63496 4.19581 2.71463C3.99141 2.79051 3.84001 2.89485 3.74159 3.02764C3.64318 3.16043 3.59208 3.3122 3.5883 3.48293C3.58073 3.62331 3.60533 3.75041 3.66211 3.86423C3.72267 3.97426 3.8173 4.0748 3.94599 4.16585C4.07469 4.25312 4.23934 4.33279 4.43995 4.40488C4.64056 4.47696 4.87902 4.54146 5.15534 4.59837L6.10919 4.80325C6.75266 4.93984 7.3034 5.12005 7.7614 5.3439C8.2194 5.56775 8.59412 5.83144 8.88558 6.13496C9.17703 6.43469 9.39089 6.77236 9.52716 7.14797C9.66721 7.52358 9.73912 7.93333 9.74291 8.37724C9.73912 9.14363 9.54797 9.79241 9.16946 10.3236C8.79095 10.8547 8.24968 11.2588 7.54564 11.5358C6.8454 11.8127 6.00321 11.9512 5.01907 11.9512C4.00845 11.9512 3.12651 11.8014 2.37327 11.5016C1.62382 11.2019 1.04091 10.7409 0.624545 10.1187C0.211967 9.49268 0.00378512 8.69214 0 7.71707H2.99782C3.01674 8.07371 3.10569 8.37344 3.26467 8.61626C3.42364 8.85908 3.64697 9.04309 3.93464 9.16829C4.22609 9.2935 4.57243 9.3561 4.97365 9.3561C5.31053 9.3561 5.59252 9.31436 5.81963 9.2309C6.04673 9.14743 6.21896 9.03171 6.3363 8.88374C6.45364 8.73577 6.5142 8.56694 6.51798 8.37724C6.5142 8.19892 6.45553 8.04336 6.34197 7.91057C6.23221 7.77398 6.05052 7.65257 5.79692 7.54634C5.54331 7.43631 5.20076 7.33388 4.76926 7.23902L3.61101 6.98862C2.58145 6.76477 1.76955 6.39106 1.17528 5.86748C0.584802 5.34011 0.291454 4.62114 0.29524 3.71057C0.291454 2.97073 0.488281 2.32385 0.885719 1.76992C1.28694 1.2122 1.84146 0.777778 2.54928 0.466667C3.26088 0.155556 4.07658 0 4.99636 0C5.93507 0 6.74698 0.157453 7.43209 0.472358C8.1172 0.787263 8.64522 1.23117 9.01616 1.80407C9.39089 2.37317 9.58015 3.03902 9.58393 3.80163H6.5634Z" fill="white"/>
<path d="M10.9437 11.8146V0.15935H14.1005V4.87154H14.2595L17.757 0.15935H21.4361L17.5071 5.34959L21.5269 11.8146H17.757L15.1452 7.4439L14.1005 8.80976V11.8146H10.9437Z" fill="white"/>
<path d="M25.5297 0.15935V11.8146H22.3729V0.15935H25.5297Z" fill="white"/>
<path d="M27.0258 11.8146V0.15935H30.1826V9.26504H34.8837V11.8146H27.0258Z" fill="white"/>
<path d="M36.1598 11.8146V0.15935H39.3165V9.26504H44.0177V11.8146H36.1598Z" fill="white"/>
<path d="M51.5619 3.80163C51.5316 3.42222 51.3897 3.12629 51.1361 2.91382C50.8863 2.70135 50.5058 2.59512 49.9949 2.59512C49.6693 2.59512 49.4025 2.63496 49.1943 2.71463C48.9899 2.79051 48.8385 2.89485 48.7401 3.02764C48.6417 3.16043 48.5906 3.3122 48.5868 3.48293C48.5792 3.62331 48.6038 3.75041 48.6606 3.86423C48.7212 3.97426 48.8158 4.0748 48.9445 4.16585C49.0732 4.25312 49.2378 4.33279 49.4384 4.40488C49.6391 4.47696 49.8775 4.54146 50.1538 4.59837L51.1077 4.80325C51.7512 4.93984 52.3019 5.12005 52.7599 5.3439C53.2179 5.56775 53.5926 5.83144 53.8841 6.13496C54.1755 6.43469 54.3894 6.77236 54.5257 7.14797C54.6657 7.52358 54.7376 7.93333 54.7414 8.37724C54.7376 9.14363 54.5465 9.79241 54.168 10.3236C53.7894 10.8547 53.2482 11.2588 52.5441 11.5358C51.8439 11.8127 51.0017 11.9512 50.0176 11.9512C49.0069 11.9512 48.125 11.8014 47.3718 11.5016C46.6223 11.2019 46.0394 10.7409 45.623 10.1187C45.2105 9.49268 45.0023 8.69214 44.9985 7.71707H47.9963C48.0152 8.07371 48.1042 8.37344 48.2632 8.61626C48.4221 8.85908 48.6455 9.04309 48.9331 9.16829C49.2246 9.2935 49.5709 9.3561 49.9721 9.3561C50.309 9.3561 50.591 9.31436 50.8181 9.2309C51.0452 9.14743 51.2174 9.03171 51.3348 8.88374C51.4521 8.73577 51.5127 8.56694 51.5165 8.37724C51.5127 8.19892 51.454 8.04336 51.3405 7.91057C51.2307 7.77398 51.049 7.65257 50.7954 7.54634C50.5418 7.43631 50.1993 7.33388 49.7677 7.23902L48.6095 6.98862C47.5799 6.76477 46.768 6.39106 46.1738 5.86748C45.5833 5.34011 45.29 4.62114 45.2937 3.71057C45.29 2.97073 45.4868 2.32385 45.8842 1.76992C46.2854 1.2122 46.84 0.777778 47.5478 0.466667C48.2594 0.155556 49.0751 0 49.9949 0C50.9336 0 51.7455 0.157453 52.4306 0.472358C53.1157 0.787263 53.6437 1.23117 54.0147 1.80407C54.3894 2.37317 54.5786 3.03902 54.5824 3.80163H51.5619Z" fill="white"/>
<path d="M66.0088 0.15935H69.1656V7.62602C69.1656 8.51382 68.9536 9.28211 68.5297 9.93089C68.1095 10.5759 67.5228 11.0748 66.7696 11.4276C66.0163 11.7767 65.142 11.9512 64.1465 11.9512C63.1434 11.9512 62.2653 11.7767 61.512 11.4276C60.7588 11.0748 60.1721 10.5759 59.752 9.93089C59.3356 9.28211 59.1274 8.51382 59.1274 7.62602V0.15935H62.2842V7.35285C62.2842 7.71328 62.3637 8.03577 62.5227 8.32032C62.6816 8.60108 62.9012 8.82114 63.1813 8.98049C63.4652 9.13984 63.7869 9.21951 64.1465 9.21951C64.5099 9.21951 64.8316 9.13984 65.1117 8.98049C65.3918 8.82114 65.6113 8.60108 65.7703 8.32032C65.9293 8.03577 66.0088 7.71328 66.0088 7.35285V0.15935Z" fill="white"/>
<path d="M70.6659 11.8146V0.15935H75.685C76.548 0.15935 77.3031 0.330081 77.9504 0.671545C78.5976 1.01301 79.101 1.49295 79.4606 2.11138C79.8202 2.72981 80 3.45257 80 4.27968C80 5.11436 79.8145 5.83713 79.4436 6.44797C79.0764 7.05881 78.5598 7.52927 77.8936 7.85935C77.2312 8.18943 76.4571 8.35447 75.5714 8.35447H72.5736V5.89594H74.9355C75.3064 5.89594 75.6225 5.83144 75.8837 5.70244C76.1486 5.56965 76.3511 5.38184 76.4912 5.13902C76.635 4.89621 76.7069 4.60976 76.7069 4.27968C76.7069 3.9458 76.635 3.66125 76.4912 3.42602C76.3511 3.18699 76.1486 3.00488 75.8837 2.87967C75.6225 2.75068 75.3064 2.68618 74.9355 2.68618H73.8227V11.8146H70.6659Z" fill="white"/>
<path d="M12.239 19.8276C12.2087 19.4482 12.0667 19.1523 11.8131 18.9398C11.5633 18.7274 11.1829 18.6211 10.6719 18.6211C10.3464 18.6211 10.0795 18.661 9.87137 18.7407C9.66697 18.8165 9.51556 18.9209 9.41715 19.0537C9.31874 19.1865 9.26764 19.3382 9.26385 19.5089C9.25628 19.6493 9.28089 19.7764 9.33766 19.8902C9.39822 20.0003 9.49285 20.1008 9.62155 20.1919C9.75024 20.2791 9.91489 20.3588 10.1155 20.4309C10.3161 20.503 10.5546 20.5675 10.8309 20.6244L11.7847 20.8293C12.4282 20.9659 12.979 21.1461 13.437 21.3699C13.895 21.5938 14.2697 21.8575 14.5611 22.161C14.8526 22.4607 15.0664 22.7984 15.2027 23.174C15.3428 23.5496 15.4147 23.9593 15.4185 24.4033C15.4147 25.1696 15.2235 25.8184 14.845 26.3496C14.4665 26.8808 13.9252 27.2848 13.2212 27.5618C12.521 27.8388 11.6788 27.9772 10.6946 27.9772C9.684 27.9772 8.80207 27.8274 8.04883 27.5276C7.29937 27.2279 6.71646 26.7669 6.3001 26.1447C5.88752 25.5187 5.67934 24.7182 5.67556 23.7431H8.67337C8.6923 24.0997 8.78125 24.3995 8.94023 24.6423C9.0992 24.8851 9.32252 25.0691 9.61019 25.1943C9.90165 25.3195 10.248 25.3821 10.6492 25.3821C10.9861 25.3821 11.2681 25.3404 11.4952 25.2569C11.7223 25.1734 11.8945 25.0577 12.0119 24.9098C12.1292 24.7618 12.1898 24.593 12.1935 24.4033C12.1898 24.2249 12.1311 24.0694 12.0175 23.9366C11.9078 23.8 11.7261 23.6786 11.4725 23.5724C11.2189 23.4623 10.8763 23.3599 10.4448 23.265L9.28656 23.0146C8.25701 22.7908 7.4451 22.4171 6.85084 21.8935C6.26036 21.3661 5.96701 20.6472 5.9708 19.7366C5.96701 18.9967 6.16384 18.3499 6.56127 17.7959C6.9625 17.2382 7.51702 16.8038 8.22484 16.4927C8.93644 16.1816 9.75213 16.026 10.6719 16.026C11.6106 16.026 12.4225 16.1835 13.1076 16.4984C13.7928 16.8133 14.3208 17.2572 14.6917 17.8301C15.0664 18.3992 15.2557 19.065 15.2595 19.8276H12.239Z" fill="white"/>
<path d="M27.475 20.5561H24.2728C24.2501 20.2905 24.1895 20.0496 24.0911 19.8333C23.9965 19.6171 23.864 19.4312 23.6937 19.2756C23.5271 19.1163 23.3246 18.9949 23.0862 18.9114C22.8477 18.8241 22.5771 18.7805 22.2743 18.7805C21.7444 18.7805 21.2958 18.9095 20.9287 19.1675C20.5653 19.4255 20.289 19.7954 20.0997 20.2772C19.9142 20.7591 19.8215 21.3377 19.8215 22.013C19.8215 22.7263 19.9161 23.3238 20.1054 23.8057C20.2984 24.2837 20.5766 24.6442 20.94 24.887C21.3034 25.126 21.7406 25.2455 22.2516 25.2455C22.543 25.2455 22.8042 25.2095 23.0351 25.1374C23.266 25.0615 23.4666 24.9534 23.6369 24.813C23.8072 24.6726 23.9454 24.5038 24.0514 24.3065C24.1612 24.1054 24.235 23.8797 24.2728 23.6293L27.475 23.652C27.4372 24.1453 27.299 24.648 27.0606 25.1602C26.8221 25.6686 26.4833 26.139 26.0443 26.5715C25.609 27.0003 25.0696 27.3455 24.4261 27.6073C23.7826 27.8691 23.0351 28 22.1834 28C21.116 28 20.1584 27.7705 19.3105 27.3114C18.4664 26.8523 17.7984 26.177 17.3063 25.2854C16.818 24.3938 16.5739 23.303 16.5739 22.013C16.5739 20.7154 16.8237 19.6228 17.3233 18.735C17.823 17.8434 18.4967 17.1699 19.3446 16.7146C20.1925 16.2556 21.1387 16.026 22.1834 16.026C22.9177 16.026 23.5934 16.1266 24.2104 16.3276C24.8273 16.5287 25.3686 16.8228 25.8342 17.2098C26.2997 17.593 26.6745 18.0653 26.9584 18.6268C27.2422 19.1883 27.4145 19.8314 27.475 20.5561Z" fill="white"/>
<path d="M28.9072 27.8407V16.1854H32.064V20.7382H36.2428V16.1854H39.3996V27.8407H36.2428V23.2878H32.064V27.8407H28.9072Z" fill="white"/>
<path d="M52.163 22.013C52.163 23.3106 51.9113 24.4051 51.4079 25.2967C50.9045 26.1846 50.225 26.858 49.3696 27.3171C48.5142 27.7724 47.5603 28 46.508 28C45.4482 28 44.4906 27.7705 43.6351 27.3114C42.7835 26.8485 42.1059 26.1732 41.6025 25.2854C41.1029 24.3938 40.8531 23.303 40.8531 22.013C40.8531 20.7154 41.1029 19.6228 41.6025 18.735C42.1059 17.8434 42.7835 17.1699 43.6351 16.7146C44.4906 16.2556 45.4482 16.026 46.508 16.026C47.5603 16.026 48.5142 16.2556 49.3696 16.7146C50.225 17.1699 50.9045 17.8434 51.4079 18.735C51.9113 19.6228 52.163 20.7154 52.163 22.013ZM48.9154 22.013C48.9154 21.3149 48.8227 20.7268 48.6372 20.2488C48.4555 19.7669 48.1849 19.4027 47.8253 19.1561C47.4695 18.9057 47.0304 18.7805 46.508 18.7805C45.9857 18.7805 45.5447 18.9057 45.1851 19.1561C44.8293 19.4027 44.5587 19.7669 44.3732 20.2488C44.1916 20.7268 44.1007 21.3149 44.1007 22.013C44.1007 22.7111 44.1916 23.3011 44.3732 23.7829C44.5587 24.261 44.8293 24.6252 45.1851 24.8756C45.5447 25.1222 45.9857 25.2455 46.508 25.2455C47.0304 25.2455 47.4695 25.1222 47.8253 24.8756C48.1849 24.6252 48.4555 24.261 48.6372 23.7829C48.8227 23.3011 48.9154 22.7111 48.9154 22.013Z" fill="white"/>
<path d="M64.8881 22.013C64.8881 23.3106 64.6364 24.4051 64.133 25.2967C63.6296 26.1846 62.9502 26.858 62.0947 27.3171C61.2393 27.7724 60.2854 28 59.2332 28C58.1733 28 57.2157 27.7705 56.3603 27.3114C55.5086 26.8485 54.8311 26.1732 54.3276 25.2854C53.828 24.3938 53.5782 23.303 53.5782 22.013C53.5782 20.7154 53.828 19.6228 54.3276 18.735C54.8311 17.8434 55.5086 17.1699 56.3603 16.7146C57.2157 16.2556 58.1733 16.026 59.2332 16.026C60.2854 16.026 61.2393 16.2556 62.0947 16.7146C62.9502 17.1699 63.6296 17.8434 64.133 18.735C64.6364 19.6228 64.8881 20.7154 64.8881 22.013ZM61.6405 22.013C61.6405 21.3149 61.5478 20.7268 61.3623 20.2488C61.1806 19.7669 60.91 19.4027 60.5504 19.1561C60.1946 18.9057 59.7555 18.7805 59.2332 18.7805C58.7108 18.7805 58.2698 18.9057 57.9103 19.1561C57.5545 19.4027 57.2838 19.7669 57.0984 20.2488C56.9167 20.7268 56.8258 21.3149 56.8258 22.013C56.8258 22.7111 56.9167 23.3011 57.0984 23.7829C57.2838 24.261 57.5545 24.6252 57.9103 24.8756C58.2698 25.1222 58.7108 25.2455 59.2332 25.2455C59.7555 25.2455 60.1946 25.1222 60.5504 24.8756C60.91 24.6252 61.1806 24.261 61.3623 23.7829C61.5478 23.3011 61.6405 22.7111 61.6405 22.013Z" fill="white"/>
<path d="M66.3487 27.8407V16.1854H69.5055V25.2911H74.2066V27.8407H66.3487Z" fill="white"/>
</svg>
