<svg width="28" height="28" viewBox="0 0 28 28" fill="none" xmlns="http://www.w3.org/2000/svg">
<path d="M11.2082 9.75646C11.2965 9.67233 11.3461 9.55823 11.3461 9.43925C11.3461 9.33879 11.3523 9.23895 11.3646 9.14019H10.4186C10.4095 9.23925 10.4049 9.33903 10.4049 9.43925C10.4049 9.55823 10.4545 9.67233 10.5427 9.75646C10.631 9.84059 10.7507 9.88785 10.8755 9.88785C11.0003 9.88785 11.12 9.84059 11.2082 9.75646Z" fill="black"/>
<path d="M14.0127 6C13.0559 6 12.1382 6.36235 11.4616 7.00733C10.8594 7.58145 10.492 8.33764 10.4186 9.14019H11.3646C11.4347 8.57614 11.7015 8.04744 12.1271 7.64175C12.6272 7.16502 13.3055 6.8972 14.0127 6.8972C14.72 6.8972 15.3983 7.16502 15.8984 7.64175C16.3239 8.04744 16.5908 8.57614 16.6609 9.14019H17.6069C17.5335 8.33764 17.1661 7.58145 16.5639 7.00733C15.8873 6.36235 14.9696 6 14.0127 6Z" fill="black"/>
<path fill-rule="evenodd" clip-rule="evenodd" d="M7.09804 9.14019C6.80682 9.14019 6.52753 9.25047 6.32161 9.44677C6.11569 9.64307 6 9.90931 6 10.1869V20.9533C6 21.2309 6.11569 21.4971 6.32161 21.6934C6.52753 21.8897 6.80682 22 7.09804 22H20.902C21.1932 22 21.4725 21.8897 21.6784 21.6934C21.8843 21.4971 22 21.2309 22 20.9533V10.1869C22 9.90931 21.8843 9.64307 21.6784 9.44677C21.4725 9.25047 21.1932 9.14019 20.902 9.14019H17.6069C17.616 9.23925 17.6206 9.33903 17.6206 9.43925C17.6206 9.55823 17.571 9.67233 17.4828 9.75646C17.3945 9.84059 17.2748 9.88785 17.15 9.88785C17.0252 9.88785 16.9055 9.84059 16.8172 9.75646C16.729 9.67233 16.6794 9.55823 16.6794 9.43925C16.6794 9.33879 16.6732 9.23895 16.6609 9.14019H11.3646C11.3523 9.23895 11.3461 9.33879 11.3461 9.43925C11.3461 9.55823 11.2965 9.67233 11.2082 9.75646C11.12 9.84059 11.0003 9.88785 10.8755 9.88785C10.7507 9.88785 10.631 9.84059 10.5427 9.75646C10.4545 9.67233 10.4049 9.55823 10.4049 9.43925C10.4049 9.33903 10.4095 9.23925 10.4186 9.14019H7.09804ZM21.0129 21.059C21.0423 21.031 21.0588 20.9929 21.0588 20.9533V10.1869C21.0588 10.1473 21.0423 10.1092 21.0129 10.0812C20.9835 10.0531 20.9436 10.0374 20.902 10.0374H7.09804C7.05644 10.0374 7.01654 10.0531 6.98712 10.0812C6.9577 10.1092 6.94118 10.1473 6.94118 10.1869V20.9533C6.94118 20.9929 6.9577 21.031 6.98712 21.059C7.01654 21.0871 7.05644 21.1028 7.09804 21.1028H20.902C20.9436 21.1028 20.9835 21.0871 21.0129 21.059Z" fill="black"/>
<path fill-rule="evenodd" clip-rule="evenodd" d="M14 28C21.732 28 28 21.732 28 14C28 6.26801 21.732 0 14 0C6.26801 0 0 6.26801 0 14C0 21.732 6.26801 28 14 28ZM11.3646 9.14019C11.4347 8.57614 11.7015 8.04744 12.1271 7.64175C12.6272 7.16502 13.3055 6.8972 14.0127 6.8972C14.72 6.8972 15.3983 7.16502 15.8984 7.64175C16.3239 8.04744 16.5908 8.57614 16.6609 9.14019H11.3646ZM17.6069 9.14019H20.902C21.1932 9.14019 21.4725 9.25047 21.6784 9.44677C21.8843 9.64307 22 9.90931 22 10.1869V20.9533C22 21.2309 21.8843 21.4971 21.6784 21.6934C21.4725 21.8897 21.1932 22 20.902 22H7.09804C6.80682 22 6.52753 21.8897 6.32161 21.6934C6.11569 21.4971 6 21.2309 6 20.9533V10.1869C6 9.90931 6.11569 9.64307 6.32161 9.44677C6.52753 9.25047 6.80682 9.14019 7.09804 9.14019H10.4186C10.492 8.33764 10.8594 7.58145 11.4616 7.00733C12.1382 6.36235 13.0559 6 14.0127 6C14.9696 6 15.8873 6.36235 16.5639 7.00733C17.1661 7.58145 17.5335 8.33764 17.6069 9.14019ZM21.0129 21.059C21.0423 21.031 21.0588 20.9929 21.0588 20.9533V10.1869C21.0588 10.1473 21.0423 10.1092 21.0129 10.0812C20.9835 10.0531 20.9436 10.0374 20.902 10.0374H7.09804C7.05644 10.0374 7.01654 10.0531 6.98712 10.0812C6.9577 10.1092 6.94118 10.1473 6.94118 10.1869V20.9533C6.94118 20.9929 6.9577 21.031 6.98712 21.059C7.01654 21.0871 7.05644 21.1028 7.09804 21.1028H20.902C20.9436 21.1028 20.9835 21.0871 21.0129 21.059Z" fill="#E8E8E8"/>
<path d="M17.4828 9.75646C17.571 9.67233 17.6206 9.55823 17.6206 9.43925C17.6206 9.33903 17.616 9.23925 17.6069 9.14019H16.6609C16.6732 9.23895 16.6794 9.33879 16.6794 9.43925C16.6794 9.55823 16.729 9.67233 16.8172 9.75646C16.9055 9.84059 17.0252 9.88785 17.15 9.88785C17.2748 9.88785 17.3945 9.84059 17.4828 9.75646Z" fill="black"/>
</svg>
