<svg width="18" height="18" viewBox="0 0 18 18" fill="none" xmlns="http://www.w3.org/2000/svg">
<path d="M15.4292 4.98465H12.697V4.66323C12.697 2.62215 11.0417 0.966797 9.0006 0.966797C6.95953 0.966797 5.30417 2.62215 5.30417 4.66323V4.98465H2.57203C2.21645 4.98465 1.92917 5.27193 1.92917 5.62751V16.3954C1.92917 16.7509 2.21645 17.0382 2.57203 17.0382H15.4292C15.7847 17.0382 16.072 16.7509 16.072 16.3954V5.62751C16.072 5.27193 15.7847 4.98465 15.4292 4.98465ZM6.7506 4.66323C6.7506 3.4197 7.75707 2.41323 9.0006 2.41323C10.2441 2.41323 11.2506 3.4197 11.2506 4.66323V4.98465H6.7506V4.66323ZM14.6256 15.5918H3.3756V6.43108H5.30417V8.19894C5.30417 8.28733 5.37649 8.35965 5.46488 8.35965H6.58988C6.67828 8.35965 6.7506 8.28733 6.7506 8.19894V6.43108H11.2506V8.19894C11.2506 8.28733 11.3229 8.35965 11.4113 8.35965H12.5363C12.6247 8.35965 12.697 8.28733 12.697 8.19894V6.43108H14.6256V15.5918Z" fill="#282828"/>
</svg>
