<svg width="18" height="18" viewBox="0 0 18 18" fill="none" xmlns="http://www.w3.org/2000/svg">
<g id="CheckCircle" clip-path="url(#clip0_1120_4938)">
<g id="Vector">
<path d="M12.7566 5.80518H11.8145C11.6095 5.80518 11.4147 5.90361 11.2941 6.07236L8.1361 10.4518L6.70574 8.46701C6.58521 8.30027 6.39235 8.19982 6.18543 8.19982H5.24324C5.11266 8.19982 5.03632 8.34848 5.11266 8.45495L7.61579 11.9264C7.67492 12.0089 7.75288 12.0762 7.84319 12.1226C7.9335 12.169 8.03357 12.1932 8.1351 12.1932C8.23663 12.1932 8.3367 12.169 8.42701 12.1226C8.51732 12.0762 8.59527 12.0089 8.65441 11.9264L12.8852 6.06031C12.9636 5.95384 12.8872 5.80518 12.7566 5.80518Z" fill="#282828"/>
<path d="M9 0C4.02991 0 0 4.02991 0 9C0 13.9701 4.02991 18 9 18C13.9701 18 18 13.9701 18 9C18 4.02991 13.9701 0 9 0ZM9 16.4732C4.87366 16.4732 1.52679 13.1263 1.52679 9C1.52679 4.87366 4.87366 1.52679 9 1.52679C13.1263 1.52679 16.4732 4.87366 16.4732 9C16.4732 13.1263 13.1263 16.4732 9 16.4732Z" fill="#282828"/>
</g>
</g>
<defs>
<clipPath id="clip0_1120_4938">
<rect width="18" height="18" fill="white"/>
</clipPath>
</defs>
</svg>
