<svg width="18" height="18" viewBox="0 0 18 18" fill="none" xmlns="http://www.w3.org/2000/svg">
<g clip-path="url(#clip0_1120_4950)">
<path d="M17.2534 11.2879L15.9406 10.1629C16.0028 9.78115 16.0348 9.39139 16.0348 9.00163C16.0348 8.61187 16.0028 8.22211 15.9406 7.84039L17.2534 6.71531C17.3524 6.63034 17.4233 6.51717 17.4566 6.39084C17.4899 6.26452 17.484 6.13103 17.4398 6.00812L17.4218 5.95588C17.0604 4.94336 16.5192 4.00475 15.8244 3.18538L15.7883 3.14319C15.704 3.04384 15.5917 2.97243 15.4661 2.93836C15.3405 2.90429 15.2076 2.90916 15.0848 2.95233L13.4554 3.53295C12.8541 3.03872 12.1827 2.64896 11.4572 2.37572L11.1425 0.668015C11.1187 0.53952 11.0566 0.421306 10.9642 0.329081C10.8718 0.236855 10.7537 0.174983 10.6254 0.151685L10.5713 0.141639C9.52707 -0.0472131 8.42874 -0.0472131 7.38453 0.141639L7.33042 0.151685C7.20214 0.174983 7.08397 0.236855 6.99161 0.329081C6.89925 0.421306 6.83706 0.53952 6.81332 0.668015L6.49665 2.38376C5.77691 2.65705 5.10664 3.0466 4.51245 3.53696L2.87098 2.95233C2.74825 2.90881 2.61522 2.90377 2.48956 2.93786C2.3639 2.97195 2.25157 3.04357 2.16749 3.14319L2.13141 3.18538C1.43743 4.00533 0.896347 4.94379 0.534028 5.95588L0.51599 6.00812C0.425799 6.25925 0.499956 6.54052 0.702385 6.71531L2.0312 7.85244C1.96907 8.23015 1.939 8.61589 1.939 8.99962C1.939 9.38536 1.96907 9.7711 2.0312 10.1468L0.702385 11.2839C0.603366 11.3689 0.532498 11.4821 0.499202 11.6084C0.465907 11.7347 0.471762 11.8682 0.51599 11.9911L0.534028 12.0434C0.896796 13.0559 1.43393 13.9901 2.13141 14.8139L2.16749 14.8561C2.25177 14.9554 2.36411 15.0268 2.48969 15.0609C2.61528 15.095 2.74821 15.0901 2.87098 15.0469L4.51245 14.4623C5.10972 14.9545 5.77713 15.3443 6.49665 15.6155L6.81332 17.3312C6.83706 17.4597 6.89925 17.5779 6.99161 17.6702C7.08397 17.7624 7.20214 17.8243 7.33042 17.8476L7.38453 17.8576C8.43834 18.0475 9.51747 18.0475 10.5713 17.8576L10.6254 17.8476C10.7537 17.8243 10.8718 17.7624 10.9642 17.6702C11.0566 17.5779 11.1187 17.4597 11.1425 17.3312L11.4572 15.6235C12.1824 15.351 12.8576 14.96 13.4554 14.4663L15.0848 15.0469C15.2076 15.0904 15.3406 15.0955 15.4663 15.0614C15.5919 15.0273 15.7042 14.9557 15.7883 14.8561L15.8244 14.8139C16.5219 13.9881 17.059 13.0559 17.4218 12.0434L17.4398 11.9911C17.53 11.744 17.4559 11.4627 17.2534 11.2879ZM14.5176 8.07746C14.5677 8.38083 14.5938 8.69223 14.5938 9.00364C14.5938 9.31504 14.5677 9.62645 14.5176 9.92982L14.3854 10.7355L15.8825 12.0192C15.6556 12.5434 15.3691 13.0396 15.0287 13.4979L13.1688 12.8369L12.5394 13.3553C12.0604 13.7491 11.5273 14.0585 10.9501 14.2754L10.1865 14.5627L9.8277 16.5115C9.26165 16.5758 8.69016 16.5758 8.1241 16.5115L7.76534 14.5587L7.00773 14.2674C6.43652 14.0504 5.9054 13.741 5.4304 13.3493L4.80106 12.8289L2.9291 13.4959C2.58838 13.0358 2.30378 12.5396 2.07529 12.0172L3.5885 10.7214L3.45822 9.91776C3.41012 9.61841 3.38406 9.30902 3.38406 9.00364C3.38406 8.69625 3.40811 8.38886 3.45822 8.08951L3.5885 7.28589L2.07529 5.99004C2.30177 5.46567 2.58838 4.97144 2.9291 4.51136L4.80106 5.17837L5.4304 4.65802C5.9054 4.26626 6.43652 3.95686 7.00773 3.73988L7.76734 3.45258L8.1261 1.49977C8.68929 1.43548 9.26451 1.43548 9.82971 1.49977L10.1885 3.44857L10.9521 3.73586C11.5273 3.95284 12.0624 4.26224 12.5415 4.65602L13.1708 5.17435L15.0307 4.51337C15.3714 4.97345 15.656 5.46969 15.8845 5.99205L14.3874 7.27584L14.5176 8.07746ZM8.97991 5.26677C7.03179 5.26677 5.45244 6.84992 5.45244 8.80273C5.45244 10.7555 7.03179 12.3387 8.97991 12.3387C10.928 12.3387 12.5074 10.7555 12.5074 8.80273C12.5074 6.84992 10.928 5.26677 8.97991 5.26677ZM10.5673 10.3939C10.3591 10.6032 10.1116 10.7692 9.83923 10.8823C9.56681 10.9954 9.27477 11.0533 8.97991 11.0529C8.38064 11.0529 7.81745 10.8178 7.39255 10.3939C7.18375 10.1852 7.01818 9.93719 6.90536 9.66412C6.79254 9.39104 6.7347 9.0983 6.73516 8.80273C6.73516 8.20202 6.96965 7.63747 7.39255 7.21155C7.81745 6.78563 8.38064 6.55258 8.97991 6.55258C9.57918 6.55258 10.1424 6.78563 10.5673 7.21155C10.7761 7.42025 10.9416 7.66827 11.0545 7.94135C11.1673 8.21442 11.2251 8.50716 11.2247 8.80273C11.2247 9.40344 10.9902 9.96799 10.5673 10.3939Z" fill="#282828"/>
</g>
<defs>
<clipPath id="clip0_1120_4950">
<rect width="18" height="18" fill="white"/>
</clipPath>
</defs>
</svg>
