<svg width="30" height="30" viewBox="0 0 30 30" fill="none" xmlns="http://www.w3.org/2000/svg">
<g clip-path="url(#clip0_14_1459)">
<circle cx="15" cy="15" r="15" fill="#292929"/>
<path d="M15.0006 5.71436C9.87484 5.71436 5.71484 9.87436 5.71484 15.0001C5.71484 20.1258 9.87484 24.2858 15.0006 24.2858H19.6434V22.4286H15.0006C10.9706 22.4286 7.57199 19.0301 7.57199 15.0001C7.57199 10.9701 10.9706 7.5715 15.0006 7.5715C19.0306 7.5715 22.4291 10.9701 22.4291 15.0001V16.3279C22.4291 17.0615 21.7698 17.7858 21.0363 17.7858C20.3027 17.7858 19.6434 17.0615 19.6434 16.3279V15.0001C19.6434 12.4372 17.5634 10.3572 15.0006 10.3572C12.4377 10.3572 10.3577 12.4372 10.3577 15.0001C10.3577 17.5629 12.4377 19.6429 15.0006 19.6429C16.282 19.6429 17.452 19.1229 18.2877 18.2779C18.8913 19.1044 19.9313 19.6429 21.0363 19.6429C22.8656 19.6429 24.2863 18.1572 24.2863 16.3279V15.0001C24.2863 9.87436 20.1263 5.71436 15.0006 5.71436ZM15.0006 17.7858C13.4591 17.7858 12.2148 16.5415 12.2148 15.0001C12.2148 13.4586 13.4591 12.2144 15.0006 12.2144C16.542 12.2144 17.7863 13.4586 17.7863 15.0001C17.7863 16.5415 16.542 17.7858 15.0006 17.7858Z" fill="white"/>
</g>
<defs>
<clipPath id="clip0_14_1459">
<rect width="30" height="30" fill="white"/>
</clipPath>
</defs>
</svg>
