<svg width="20" height="20" viewBox="0 0 20 20" fill="none" xmlns="http://www.w3.org/2000/svg">
<g clip-path="url(#clip0_56_359)">
<rect width="20" height="20" rx="10" fill="#292929"/>
<path fill-rule="evenodd" clip-rule="evenodd" d="M7.0557 19.5447C7.05174 19.5436 7.04731 19.5422 7.04246 19.5407L7.04 19.54V19.57C7.04521 19.5616 7.05044 19.5532 7.0557 19.5447Z" fill="white"/>
<path d="M6.44 16.38C6.26 17.27 6.35 18.56 6.44 19.34C6.59893 19.3942 6.93177 19.5069 7.04246 19.5407L7.0557 19.5447C7.48519 18.8522 8.10279 17.7196 8.33 16.87L9 14.5C9.34 15.11 10.29 15.63 11.26 15.63C14.31 15.63 16.44 12.87 16.44 9.43C16.44 6.15 13.76 3.68 10.32 3.68C6 3.68 3.76 6.55 3.76 9.71C3.76 11.18 4.5 13 5.78 13.56C5.95 13.68 6.06 13.62 6.06 13.45L6.35 12.36C6.38 12.21 6.38 12.13 6.29 12.07C5.83 11.5 5.55 10.63 5.55 9.77C5.55 7.56 7.21 5.46 10.03 5.46C12.5 5.46 14.22 7.1 14.22 9.5C14.22 12.18 12.84 14.08 11.06 14.08C10.06 14.08 9.37 13.22 9.54 12.24C9.83 11.06 10.4 9.83 10.4 8.97C10.4 8.16 10 7.53 9.14 7.53C8.16 7.53 7.3 8.56 7.3 9.94C7.3 10.86 7.59 11.44 7.59 11.44L6.44 16.38Z" fill="white"/>
</g>
<defs>
<clipPath id="clip0_56_359">
<rect width="20" height="20" rx="10" fill="white"/>
</clipPath>
</defs>
</svg>
