<svg width="20" height="20" viewBox="0 0 20 20" fill="none" xmlns="http://www.w3.org/2000/svg">
<g clip-path="url(#clip0_56_355)">
<path d="M11.6034 9.8329L9.35739 8.7849C9.16139 8.6939 9.00039 8.7959 9.00039 9.0129V10.9869C9.00039 11.2039 9.16139 11.3059 9.35739 11.2149L11.6024 10.1669C11.7994 10.0749 11.7994 9.9249 11.6034 9.8329ZM10.0004 0.399902C4.69839 0.399902 0.400391 4.6979 0.400391 9.9999C0.400391 15.3019 4.69839 19.5999 10.0004 19.5999C15.3024 19.5999 19.6004 15.3019 19.6004 9.9999C19.6004 4.6979 15.3024 0.399902 10.0004 0.399902ZM10.0004 13.8999C5.08639 13.8999 5.00039 13.4569 5.00039 9.9999C5.00039 6.5429 5.08639 6.0999 10.0004 6.0999C14.9144 6.0999 15.0004 6.5429 15.0004 9.9999C15.0004 13.4569 14.9144 13.8999 10.0004 13.8999Z" fill="#292929"/>
</g>
<defs>
<clipPath id="clip0_56_355">
<rect width="20" height="20" fill="white"/>
</clipPath>
</defs>
</svg>
