<svg width="20" height="20" viewBox="0 0 20 20" fill="none" xmlns="http://www.w3.org/2000/svg">
<g clip-path="url(#clip0_56_352)">
<path d="M11.6698 9.82604L9.33021 8.73438C9.12604 8.63958 8.95833 8.74583 8.95833 8.97188V11.0281C8.95833 11.2542 9.12604 11.3604 9.33021 11.2656L11.6688 10.174C11.874 10.0781 11.874 9.92188 11.6698 9.82604ZM10 0C4.47708 0 0 4.47708 0 10C0 15.5229 4.47708 20 10 20C15.5229 20 20 15.5229 20 10C20 4.47708 15.5229 0 10 0ZM10 14.0625C4.88125 14.0625 4.79167 13.601 4.79167 10C4.79167 6.39896 4.88125 5.9375 10 5.9375C15.1188 5.9375 15.2083 6.39896 15.2083 10C15.2083 13.601 15.1188 14.0625 10 14.0625Z" fill="#292929"/>
<path fill-rule="evenodd" clip-rule="evenodd" d="M10 14.0625C4.88125 14.0625 4.79167 13.601 4.79167 10C4.79167 6.39896 4.88125 5.9375 10 5.9375C15.1188 5.9375 15.2083 6.39896 15.2083 10C15.2083 13.601 15.1188 14.0625 10 14.0625ZM9.33021 8.73438L11.6698 9.82604C11.874 9.92188 11.874 10.0781 11.6688 10.174L9.33021 11.2656C9.12604 11.3604 8.95833 11.2542 8.95833 11.0281V8.97188C8.95833 8.74583 9.12604 8.63958 9.33021 8.73438Z" fill="#292929"/>
<path fill-rule="evenodd" clip-rule="evenodd" d="M15.177 14.2031H13.8917C13.5509 14.2031 13.3771 13.9992 13.0033 13.5608C12.8438 13.3736 12.6479 13.1437 12.387 12.8687C11.6259 12.0952 11.3043 11.9987 11.1114 11.9987C10.8453 11.9987 10.7722 12.0757 10.7722 12.463V13.6812C10.7722 14.0109 10.6709 14.204 9.85427 14.204C9.06171 14.1479 8.29315 13.8941 7.61189 13.4635C6.93063 13.033 6.35615 12.438 5.93579 11.7275C4.93782 10.4182 4.24343 8.88159 3.90784 7.23975C3.90784 7.03639 3.98096 6.85254 4.34832 6.85254H5.63274C5.9631 6.85254 6.08203 7.00761 6.21153 7.36511C6.83524 9.30025 7.89943 10.9828 8.3311 10.9828C8.49672 10.9828 8.56896 10.9057 8.56896 10.4703V8.47754C8.53538 7.91864 8.3493 7.67422 8.21092 7.49247C8.12422 7.37858 8.05624 7.2893 8.05624 7.16268C8.06213 7.07598 8.09982 6.9951 8.16133 6.9372C8.22284 6.8793 8.30332 6.84893 8.38572 6.85254H10.4049C10.6806 6.85254 10.7722 6.99739 10.7722 7.34561V10.0347C10.7722 10.3254 10.8911 10.422 10.974 10.422C11.1396 10.422 11.2673 10.3254 11.5704 10.006C12.2213 9.16927 12.7531 8.23711 13.149 7.23882C13.1895 7.11891 13.2661 7.01625 13.3671 6.9465C13.4681 6.87675 13.588 6.84375 13.7084 6.85254H14.9937C15.3787 6.85254 15.4606 7.05589 15.3787 7.34561C14.9114 8.44915 14.3331 9.49669 13.6538 10.4703C13.5155 10.6931 13.46 10.8092 13.6538 11.0701C13.7194 11.1745 13.8699 11.3297 14.0418 11.5071C14.2049 11.6753 14.3873 11.8635 14.5348 12.047C14.9752 12.51 15.3409 13.0457 15.6175 13.633C15.7276 14.01 15.5435 14.204 15.177 14.204V14.2031Z" fill="white"/>
</g>
<defs>
<clipPath id="clip0_56_352">
<rect width="20" height="20" fill="white"/>
</clipPath>
</defs>
</svg>
