<svg width="18" height="18" fill="none" xmlns="http://www.w3.org/2000/svg"><path d="M14.318 5.75h-2.897v-.3C11.42 3.545 9.665 2 7.5 2S3.58 3.545 3.58 5.45v.3H.682c-.377 0-.682.268-.682.6V16.4c0 .332.305.6.682.6h13.636c.377 0 .682-.268.682-.6V6.35c0-.332-.305-.6-.682-.6zm-9.204-.3c0-1.16 1.067-2.1 2.386-2.1 1.319 0 2.386.94 2.386 2.1v.3H5.114v-.3zm8.352 10.2H1.534V7.1H3.58v1.65c0 .082.076.15.17.15h1.193c.094 0 .17-.068.17-.15V7.1h4.773v1.65c0 .082.077.15.17.15h1.194c.094 0 .17-.068.17-.15V7.1h2.046v8.55z" fill="#282828"/></svg>