<svg width="15" height="16" fill="none" xmlns="http://www.w3.org/2000/svg"><g clip-path="url(#clip0_1806_19064)" fill-rule="evenodd" clip-rule="evenodd" fill="#000"><path d="M10.5 5.75a3 3 0 11-6 0 3 3 0 016 0zm-.75 0a2.25 2.25 0 11-4.5 0 2.25 2.25 0 014.5 0z"/><path d="M15 8a7.466 7.466 0 01-1.713 4.77A7.485 7.485 0 017.5 15.5a7.489 7.489 0 01-6-3A7.5 7.5 0 1115 8zm-7.5 6.75h.012a6.733 6.733 0 005.02-2.25A6.732 6.732 0 007.5 10.25a6.732 6.732 0 00-5.031 2.25 6.733 6.733 0 005.019 2.25H7.5zm0-5.25a7.48 7.48 0 015.505 2.407 6.75 6.75 0 10-11.01 0A7.48 7.48 0 017.5 9.5z"/></g><defs><clipPath id="clip0_1806_19064"><path fill="#fff" transform="translate(0 .5)" d="M0 0h15v15H0z"/></clipPath></defs></svg>