<svg width="15" height="16" fill="none" xmlns="http://www.w3.org/2000/svg"><path fill-rule="evenodd" clip-rule="evenodd" d="M5.25 8.5a2.25 2.25 0 114.5 0 2.25 2.25 0 01-4.5 0zM7.5 10a1.5 1.5 0 110-3 1.5 1.5 0 010 3z" fill="#000"/><path fill-rule="evenodd" clip-rule="evenodd" d="M11.212 2.666a.75.75 0 011.061 0l1.06 1.061a.75.75 0 010 1.06C12.518 5.605 13.096 7 14.25 7a.75.75 0 01.75.75v1.5a.75.75 0 01-.75.75c-1.155 0-1.733 1.396-.916 2.212a.75.75 0 010 1.061l-1.061 1.06a.75.75 0 01-1.06 0C10.395 13.518 9 14.096 9 15.25a.75.75 0 01-.75.75h-1.5a.75.75 0 01-.75-.75c0-1.155-1.396-1.733-2.212-.916a.75.75 0 01-1.061 0l-1.06-1.061a.75.75 0 010-1.06C2.482 11.395 1.904 10 .75 10A.75.75 0 010 9.25v-1.5A.75.75 0 01.75 7c1.155 0 1.733-1.396.916-2.212a.75.75 0 010-1.061l1.061-1.06a.75.75 0 011.06 0C4.605 3.482 6 2.904 6 1.75A.75.75 0 016.75 1h1.5a.75.75 0 01.75.75c0 1.155 1.396 1.733 2.212.916zM.75 7.75c1.823 0 2.736-2.204 1.447-3.493l1.06-1.06c1.29 1.289 3.493.376 3.493-1.447h1.5c0 1.823 2.204 2.736 3.493 1.447l1.06 1.06c-1.289 1.29-.376 3.493 1.447 3.493v1.5c-1.823 0-2.736 2.204-1.447 3.493l-1.06 1.06c-1.29-1.289-3.493-.376-3.493 1.447h-1.5c0-1.823-2.204-2.736-3.493-1.447l-1.06-1.06C3.486 11.453 2.573 9.25.75 9.25v-1.5z" fill="#000"/></svg>