<svg width="28" height="28" fill="none" xmlns="http://www.w3.org/2000/svg"><path d="M11.208 9.756a.438.438 0 00.138-.317c0-.1.006-.2.019-.299h-.946c-.01.1-.014.199-.014.3 0 .118.05.232.138.316a.483.483 0 00.665 0zM14.013 6a3.7 3.7 0 00-2.551 1.007 3.373 3.373 0 00-1.043 2.133h.946a2.49 2.49 0 01.762-1.498 2.734 2.734 0 011.886-.745c.707 0 1.385.268 1.885.745.426.405.693.934.763 1.498h.946a3.373 3.373 0 00-1.043-2.133A3.7 3.7 0 0014.013 6z" fill="#000"/><path fill-rule="evenodd" clip-rule="evenodd" d="M7.098 9.14c-.291 0-.57.11-.776.307a1.023 1.023 0 00-.322.74v10.766c0 .278.116.544.322.74.206.197.485.307.776.307h13.804c.291 0 .57-.11.776-.307.206-.196.322-.462.322-.74V10.187c0-.278-.116-.544-.322-.74a1.126 1.126 0 00-.776-.307h-3.295c.009.1.014.199.014.3 0 .118-.05.232-.138.316a.483.483 0 01-.666 0 .438.438 0 01-.138-.317c0-.1-.006-.2-.018-.299h-5.296a2.42 2.42 0 00-.019.3c0 .118-.05.232-.138.316a.483.483 0 01-.665 0 .438.438 0 01-.138-.317c0-.1.005-.2.014-.299H7.098zm13.915 11.92a.146.146 0 00.046-.106V10.187a.146.146 0 00-.046-.106.16.16 0 00-.111-.044H7.098a.16.16 0 00-.11.044.146.146 0 00-.047.106v10.766c0 .04.017.078.046.106a.16.16 0 00.111.044h13.804a.16.16 0 00.11-.044z" fill="#000"/><path fill-rule="evenodd" clip-rule="evenodd" d="M14 28c7.732 0 14-6.268 14-14S21.732 0 14 0 0 6.268 0 14s6.268 14 14 14zM11.365 9.14a2.49 2.49 0 01.762-1.498 2.734 2.734 0 011.886-.745c.707 0 1.385.268 1.885.745.426.405.693.934.763 1.498h-5.296zm6.242 0h3.295c.291 0 .57.11.776.307.206.196.322.462.322.74v10.766c0 .278-.116.544-.322.74a1.126 1.126 0 01-.776.307H7.098c-.291 0-.57-.11-.776-.307a1.022 1.022 0 01-.322-.74V10.187c0-.278.116-.544.322-.74.206-.197.485-.307.776-.307h3.32a3.373 3.373 0 011.044-2.133A3.7 3.7 0 0114.012 6a3.7 3.7 0 012.552 1.007c.602.574.97 1.33 1.043 2.133zm3.406 11.919a.146.146 0 00.046-.106V10.187a.146.146 0 00-.046-.106.16.16 0 00-.111-.044H7.098a.16.16 0 00-.11.044.146.146 0 00-.047.106v10.766c0 .04.017.078.046.106a.16.16 0 00.111.044h13.804a.16.16 0 00.11-.044z" fill="#E8E8E8"/><path d="M17.483 9.756a.438.438 0 00.138-.317c0-.1-.005-.2-.014-.299h-.946c.012.099.018.199.018.3 0 .118.05.232.138.316a.483.483 0 00.666 0z" fill="#000"/></svg>