<svg width="18" height="18" fill="none" xmlns="http://www.w3.org/2000/svg"><g fill="#282828" clip-path="url(#clip0_1120_4938)"><path d="M12.757 5.805h-.942a.64.64 0 00-.52.267l-3.159 4.38-1.43-1.985a.642.642 0 00-.52-.267h-.943a.161.161 0 00-.13.255l2.503 3.471a.64.64 0 001.038 0l4.231-5.866a.16.16 0 00-.128-.255z"/><path d="M9 0a9 9 0 10.001 18.001A9 9 0 009 0zm0 16.473A7.475 7.475 0 011.527 9 7.474 7.474 0 019 1.527 7.475 7.475 0 0116.473 9 7.475 7.475 0 019 16.473z"/></g><defs><clipPath id="clip0_1120_4938"><path fill="#fff" d="M0 0h18v18H0z"/></clipPath></defs></svg>