<svg width="18" height="18" fill="none" xmlns="http://www.w3.org/2000/svg"><g clip-path="url(#clip0_1120_4942)"><path d="M15.272 12.778a6.055 6.055 0 00-1.736-1.214 4.009 4.009 0 001.491-3.124c0-2.225-1.856-4.052-4.082-4.017a4.02 4.02 0 00-2.467 7.141c-.645.3-1.233.71-1.736 1.214a5.987 5.987 0 00-1.76 4.096.16.16 0 00.161.165h1.125a.16.16 0 00.16-.155 4.54 4.54 0 011.34-3.084 4.552 4.552 0 013.241-1.342c1.224 0 2.375.476 3.24 1.342a4.559 4.559 0 011.34 3.084.16.16 0 00.161.155h1.125a.161.161 0 00.161-.165 5.974 5.974 0 00-1.764-4.096zm-4.263-1.766a2.55 2.55 0 01-1.818-.753 2.55 2.55 0 01-.753-1.845 2.575 2.575 0 012.545-2.545 2.586 2.586 0 011.828.735c.498.488.772 1.141.772 1.836 0 .688-.268 1.332-.754 1.819a2.558 2.558 0 01-1.82.753zM5.977 8.97a5.15 5.15 0 01.058-1.465.162.162 0 00-.09-.176 2.538 2.538 0 01-.742-.505 2.562 2.562 0 01-.777-1.916 2.558 2.558 0 01.73-1.72 2.558 2.558 0 011.872-.777 2.568 2.568 0 012.137 1.18.16.16 0 00.187.065 4.985 4.985 0 011.11-.249.161.161 0 00.127-.233A4.025 4.025 0 007.06.967C4.833.933 2.977 2.76 2.977 4.983a4.01 4.01 0 001.49 3.124A6.04 6.04 0 002.728 9.32a5.975 5.975 0 00-1.763 4.1.16.16 0 00.16.164h1.127a.16.16 0 00.161-.154 4.541 4.541 0 011.34-3.084c.59-.59 1.314-1 2.103-1.2a.16.16 0 00.12-.174z" fill="#282828"/></g><defs><clipPath id="clip0_1120_4942"><path fill="#fff" d="M0 0h18v18H0z"/></clipPath></defs></svg>