<svg width="18" height="18" fill="none" xmlns="http://www.w3.org/2000/svg"><g clip-path="url(#clip0_1120_4950)"><path d="M17.253 11.288l-1.312-1.125a7.235 7.235 0 000-2.323l1.312-1.125a.644.644 0 00.187-.707l-.018-.052a8.92 8.92 0 00-1.598-2.77l-.036-.043a.643.643 0 00-.703-.19l-1.63.58a7.06 7.06 0 00-1.998-1.157L11.142.668a.645.645 0 00-.517-.516l-.054-.01a9.033 9.033 0 00-3.186 0l-.055.01a.642.642 0 00-.517.516l-.316 1.716c-.72.273-1.39.663-1.985 1.153l-1.641-.585a.64.64 0 00-.704.191l-.036.042a8.966 8.966 0 00-1.597 2.77l-.018.053a.646.646 0 00.186.707l1.33 1.137A7.086 7.086 0 001.938 9c0 .385.03.771.092 1.147L.702 11.284a.644.644 0 00-.186.707l.018.052a8.945 8.945 0 001.597 2.77l.036.043a.644.644 0 00.704.19l1.641-.584a7 7 0 001.985 1.154l.316 1.715a.645.645 0 00.517.517l.055.01c1.053.19 2.132.19 3.186 0l.054-.01a.642.642 0 00.518-.517l.314-1.707a7.01 7.01 0 001.998-1.158l1.63.58a.64.64 0 00.703-.19l.036-.042a8.968 8.968 0 001.598-2.77l.018-.053a.642.642 0 00-.187-.703zm-2.735-3.21a5.7 5.7 0 010 1.852l-.133.806 1.498 1.283a7.43 7.43 0 01-.854 1.479l-1.86-.661-.63.518a5.595 5.595 0 01-1.589.92l-.763.288-.36 1.949a7.547 7.547 0 01-1.703 0l-.359-1.953-.757-.292a5.606 5.606 0 01-1.578-.918l-.629-.52-1.872.667a7.596 7.596 0 01-.854-1.479l1.513-1.296-.13-.803a5.798 5.798 0 01-.074-.914c0-.308.024-.615.074-.914l.13-.804L2.075 5.99a7.439 7.439 0 01.854-1.479l1.872.667.63-.52a5.604 5.604 0 011.577-.918l.76-.287.358-1.953a7.548 7.548 0 011.704 0l.358 1.949.764.287a5.64 5.64 0 011.59.92l.629.518 1.86-.66c.34.46.625.956.853 1.478l-1.497 1.284.13.801zM8.98 5.266a3.532 3.532 0 00-3.528 3.536 3.532 3.532 0 003.528 3.536 3.532 3.532 0 003.527-3.536A3.532 3.532 0 008.98 5.267zm1.587 5.127a2.237 2.237 0 01-3.174 0 2.242 2.242 0 01-.658-1.591 2.245 2.245 0 114.49 0c0 .6-.235 1.165-.658 1.59z" fill="#282828"/></g><defs><clipPath id="clip0_1120_4950"><path fill="#fff" d="M0 0h18v18H0z"/></clipPath></defs></svg>