<svg width="18" height="18" fill="none" xmlns="http://www.w3.org/2000/svg"><path d="M15.43 4.985h-2.733v-.322a3.697 3.697 0 00-7.393 0v.322H2.572a.642.642 0 00-.643.643v10.767c0 .356.287.643.643.643h12.857a.642.642 0 00.643-.643V5.628a.642.642 0 00-.643-.643zm-8.68-.322A2.249 2.249 0 019 2.413a2.249 2.249 0 012.25 2.25v.322h-4.5v-.322zm7.876 10.929H3.376v-9.16h1.928v1.767c0 .088.072.16.16.16H6.59a.16.16 0 00.16-.16V6.43h4.5V8.2c0 .088.073.16.161.16h1.125a.16.16 0 00.161-.16V6.43h1.929v9.16z" fill="#282828"/></svg>