<svg width="30" height="30" fill="none" xmlns="http://www.w3.org/2000/svg"><g clip-path="url(#clip0_14_1459)"><circle cx="15" cy="15" r="15" fill="#292929"/><path d="M15 5.714c-5.125 0-9.285 4.16-9.285 9.286 0 5.126 4.16 9.286 9.286 9.286h4.642v-1.857h-4.642c-4.03 0-7.429-3.399-7.429-7.429s3.399-7.428 7.429-7.428S22.429 10.97 22.429 15v1.328c0 .733-.66 1.458-1.393 1.458s-1.393-.725-1.393-1.458V15a4.645 4.645 0 00-4.642-4.643A4.645 4.645 0 0010.358 15a4.645 4.645 0 007.93 3.278c.603.826 1.643 1.365 2.748 1.365 1.83 0 3.25-1.486 3.25-3.315V15c0-5.126-4.16-9.286-9.285-9.286zm0 12.072A2.782 2.782 0 0112.216 15 2.782 2.782 0 0115 12.214 2.782 2.782 0 0117.786 15a2.782 2.782 0 01-2.785 2.786z" fill="#fff"/></g><defs><clipPath id="clip0_14_1459"><path fill="#fff" d="M0 0h30v30H0z"/></clipPath></defs></svg>