<svg width="20" height="20" fill="none" xmlns="http://www.w3.org/2000/svg"><g clip-path="url(#clip0_56_359)"><rect width="20" height="20" rx="10" fill="#292929"/><path fill-rule="evenodd" clip-rule="evenodd" d="M7.056 19.545l-.014-.004-.002-.001v.03l.016-.025z" fill="#fff"/><path d="M6.44 16.38c-.18.89-.09 2.18 0 2.96.159.054.492.167.602.2l.014.005c.43-.693 1.047-1.825 1.274-2.675L9 14.5c.34.61 1.29 1.13 2.26 1.13 3.05 0 5.18-2.76 5.18-6.2 0-3.28-2.68-5.75-6.12-5.75-4.32 0-6.56 2.87-6.56 6.03 0 1.47.74 3.29 2.02 3.85.17.12.28.06.28-.11l.29-1.09c.03-.15.03-.23-.06-.29-.46-.57-.74-1.44-.74-2.3 0-2.21 1.66-4.31 4.48-4.31 2.47 0 4.19 1.64 4.19 4.04 0 2.68-1.38 4.58-3.16 4.58-1 0-1.69-.86-1.52-1.84.29-1.18.86-2.41.86-3.27 0-.81-.4-1.44-1.26-1.44-.98 0-1.84 1.03-1.84 2.41 0 .92.29 1.5.29 1.5l-1.15 4.94z" fill="#fff"/></g><defs><clipPath id="clip0_56_359"><rect width="20" height="20" rx="10" fill="#fff"/></clipPath></defs></svg>