<svg width="0" height="0" class="hidden">
  <symbol fill="none" xmlns="http://www.w3.org/2000/svg" viewBox="0 0 20 20" id="painterest">
    <g clip-path="url(#clip0_56_359)">
      <rect width="20" height="20" rx="10" fill="#292929"></rect>
      <path fill-rule="evenodd" clip-rule="evenodd" d="M7.0557 19.5447C7.05174 19.5436 7.04731 19.5422 7.04246 19.5407L7.04 19.54V19.57C7.04521 19.5616 7.05044 19.5532 7.0557 19.5447Z" fill="white"></path>
      <path d="M6.44 16.38C6.26 17.27 6.35 18.56 6.44 19.34C6.59893 19.3942 6.93177 19.5069 7.04246 19.5407L7.0557 19.5447C7.48519 18.8522 8.10279 17.7196 8.33 16.87L9 14.5C9.34 15.11 10.29 15.63 11.26 15.63C14.31 15.63 16.44 12.87 16.44 9.43C16.44 6.15 13.76 3.68 10.32 3.68C6 3.68 3.76 6.55 3.76 9.71C3.76 11.18 4.5 13 5.78 13.56C5.95 13.68 6.06 13.62 6.06 13.45L6.35 12.36C6.38 12.21 6.38 12.13 6.29 12.07C5.83 11.5 5.55 10.63 5.55 9.77C5.55 7.56 7.21 5.46 10.03 5.46C12.5 5.46 14.22 7.1 14.22 9.5C14.22 12.18 12.84 14.08 11.06 14.08C10.06 14.08 9.37 13.22 9.54 12.24C9.83 11.06 10.4 9.83 10.4 8.97C10.4 8.16 10 7.53 9.14 7.53C8.16 7.53 7.3 8.56 7.3 9.94C7.3 10.86 7.59 11.44 7.59 11.44L6.44 16.38Z" fill="white"></path>
    </g>
    <defs>
      <clipPath id="clip0_56_359">
        <rect width="20" height="20" rx="10" fill="white"></rect>
      </clipPath>
    </defs>
  </symbol>
  <symbol fill="none" xmlns="http://www.w3.org/2000/svg" viewBox="0 0 20 20" id="phone">
    <rect width="20" height="20" rx="10" fill="#292929"></rect>
    <path d="M4 12.7111L4.96111 14.3667C5.15 14.7444 5.53889 15 5.97778 15H12.3444L11.0333 12.7111H4ZM15.3667 12.7222C15.3667 12.5 15.3 12.2833 15.1833 12.1L11.4444 5.61112C11.3484 5.42613 11.2032 5.27121 11.0248 5.16339C10.8464 5.05558 10.6418 4.99905 10.4333 5.00001H8.46111L14.2278 15L15.1389 13.4111C15.3111 13.1111 15.3667 12.9778 15.3667 12.7222ZM10.0889 11.0778L7.51666 6.62223L4.93333 11.0778H10.0889Z" fill="white"></path>
  </symbol>
  <symbol fill="none" xmlns="http://www.w3.org/2000/svg" viewBox="0 0 20 20" id="tg">
    <path d="M10 0C4.48 0 0 4.48 0 10C0 15.52 4.48 20 10 20C15.52 20 20 15.52 20 10C20 4.48 15.52 0 10 0ZM14.64 6.8C14.49 8.38 13.84 12.22 13.51 13.99C13.37 14.74 13.09 14.99 12.83 15.02C12.25 15.07 11.81 14.64 11.25 14.27C10.37 13.69 9.87 13.33 9.02 12.77C8.03 12.12 8.67 11.76 9.24 11.18C9.39 11.03 11.95 8.7 12 8.49C12.0069 8.45819 12.006 8.42517 11.9973 8.3938C11.9886 8.36244 11.9724 8.33367 11.95 8.31C11.89 8.26 11.81 8.28 11.74 8.29C11.65 8.31 10.25 9.24 7.52 11.08C7.12 11.35 6.76 11.49 6.44 11.48C6.08 11.47 5.4 11.28 4.89 11.11C4.26 10.91 3.77 10.8 3.81 10.45C3.83 10.27 4.08 10.09 4.55 9.9C7.47 8.63 9.41 7.79 10.38 7.39C13.16 6.23 13.73 6.03 14.11 6.03C14.19 6.03 14.38 6.05 14.5 6.15C14.6 6.23 14.63 6.34 14.64 6.42C14.63 6.48 14.65 6.66 14.64 6.8Z" fill="#292929"></path>
  </symbol>
  <symbol fill="none" xmlns="http://www.w3.org/2000/svg" viewBox="0 0 20 20" id="tube">
    <g clip-path="url(#clip0_56_355)">
      <path d="M11.6034 9.8329L9.35739 8.7849C9.16139 8.6939 9.00039 8.7959 9.00039 9.0129V10.9869C9.00039 11.2039 9.16139 11.3059 9.35739 11.2149L11.6024 10.1669C11.7994 10.0749 11.7994 9.9249 11.6034 9.8329ZM10.0004 0.399902C4.69839 0.399902 0.400391 4.6979 0.400391 9.9999C0.400391 15.3019 4.69839 19.5999 10.0004 19.5999C15.3024 19.5999 19.6004 15.3019 19.6004 9.9999C19.6004 4.6979 15.3024 0.399902 10.0004 0.399902ZM10.0004 13.8999C5.08639 13.8999 5.00039 13.4569 5.00039 9.9999C5.00039 6.5429 5.08639 6.0999 10.0004 6.0999C14.9144 6.0999 15.0004 6.5429 15.0004 9.9999C15.0004 13.4569 14.9144 13.8999 10.0004 13.8999Z" fill="#292929"></path>
    </g>
    <defs>
      <clipPath id="clip0_56_355">
        <rect width="20" height="20" fill="white"></rect>
      </clipPath>
    </defs>
  </symbol>
  <symbol fill="none" xmlns="http://www.w3.org/2000/svg" viewBox="0 0 20 20" id="vk">
    <g clip-path="url(#clip0_56_352)">
      <path d="M11.6698 9.82604L9.33021 8.73438C9.12604 8.63958 8.95833 8.74583 8.95833 8.97188V11.0281C8.95833 11.2542 9.12604 11.3604 9.33021 11.2656L11.6688 10.174C11.874 10.0781 11.874 9.92188 11.6698 9.82604ZM10 0C4.47708 0 0 4.47708 0 10C0 15.5229 4.47708 20 10 20C15.5229 20 20 15.5229 20 10C20 4.47708 15.5229 0 10 0ZM10 14.0625C4.88125 14.0625 4.79167 13.601 4.79167 10C4.79167 6.39896 4.88125 5.9375 10 5.9375C15.1188 5.9375 15.2083 6.39896 15.2083 10C15.2083 13.601 15.1188 14.0625 10 14.0625Z" fill="#292929"></path>
      <path fill-rule="evenodd" clip-rule="evenodd" d="M10 14.0625C4.88125 14.0625 4.79167 13.601 4.79167 10C4.79167 6.39896 4.88125 5.9375 10 5.9375C15.1188 5.9375 15.2083 6.39896 15.2083 10C15.2083 13.601 15.1188 14.0625 10 14.0625ZM9.33021 8.73438L11.6698 9.82604C11.874 9.92188 11.874 10.0781 11.6688 10.174L9.33021 11.2656C9.12604 11.3604 8.95833 11.2542 8.95833 11.0281V8.97188C8.95833 8.74583 9.12604 8.63958 9.33021 8.73438Z" fill="#292929"></path>
      <path fill-rule="evenodd" clip-rule="evenodd" d="M15.177 14.2031H13.8917C13.5509 14.2031 13.3771 13.9992 13.0033 13.5608C12.8438 13.3736 12.6479 13.1437 12.387 12.8687C11.6259 12.0952 11.3043 11.9987 11.1114 11.9987C10.8453 11.9987 10.7722 12.0757 10.7722 12.463V13.6812C10.7722 14.0109 10.6709 14.204 9.85427 14.204C9.06171 14.1479 8.29315 13.8941 7.61189 13.4635C6.93063 13.033 6.35615 12.438 5.93579 11.7275C4.93782 10.4182 4.24343 8.88159 3.90784 7.23975C3.90784 7.03639 3.98096 6.85254 4.34832 6.85254H5.63274C5.9631 6.85254 6.08203 7.00761 6.21153 7.36511C6.83524 9.30025 7.89943 10.9828 8.3311 10.9828C8.49672 10.9828 8.56896 10.9057 8.56896 10.4703V8.47754C8.53538 7.91864 8.3493 7.67422 8.21092 7.49247C8.12422 7.37858 8.05624 7.2893 8.05624 7.16268C8.06213 7.07598 8.09982 6.9951 8.16133 6.9372C8.22284 6.8793 8.30332 6.84893 8.38572 6.85254H10.4049C10.6806 6.85254 10.7722 6.99739 10.7722 7.34561V10.0347C10.7722 10.3254 10.8911 10.422 10.974 10.422C11.1396 10.422 11.2673 10.3254 11.5704 10.006C12.2213 9.16927 12.7531 8.23711 13.149 7.23882C13.1895 7.11891 13.2661 7.01625 13.3671 6.9465C13.4681 6.87675 13.588 6.84375 13.7084 6.85254H14.9937C15.3787 6.85254 15.4606 7.05589 15.3787 7.34561C14.9114 8.44915 14.3331 9.49669 13.6538 10.4703C13.5155 10.6931 13.46 10.8092 13.6538 11.0701C13.7194 11.1745 13.8699 11.3297 14.0418 11.5071C14.2049 11.6753 14.3873 11.8635 14.5348 12.047C14.9752 12.51 15.3409 13.0457 15.6175 13.633C15.7276 14.01 15.5435 14.204 15.177 14.204V14.2031Z" fill="white"></path>
    </g>
    <defs>
      <clipPath id="clip0_56_352">
        <rect width="20" height="20" fill="white"></rect>
      </clipPath>
    </defs>
  </symbol>

  <symbol fill="none" xmlns="http://www.w3.org/2000/svg" viewBox="0 0 21 19" id="arr-link">
    <path d="M19.7999 9.49992L10.9611 18.3388M19.7999 9.49992L10.961 0.661085M19.7999 9.49992L0.000895023 9.49992" stroke="black"/>
  </symbol>

  <symbol fill="none" xmlns="http://www.w3.org/2000/svg" viewBox="0 0 30 30" id="mail">
   <g clip-path="url(#clip0_14_1459)">
    <circle cx="15" cy="15" r="15" fill="#292929"/>
    <path d="M15.0006 5.71436C9.87484 5.71436 5.71484 9.87436 5.71484 15.0001C5.71484 20.1258 9.87484 24.2858 15.0006 24.2858H19.6434V22.4286H15.0006C10.9706 22.4286 7.57199 19.0301 7.57199 15.0001C7.57199 10.9701 10.9706 7.5715 15.0006 7.5715C19.0306 7.5715 22.4291 10.9701 22.4291 15.0001V16.3279C22.4291 17.0615 21.7698 17.7858 21.0363 17.7858C20.3027 17.7858 19.6434 17.0615 19.6434 16.3279V15.0001C19.6434 12.4372 17.5634 10.3572 15.0006 10.3572C12.4377 10.3572 10.3577 12.4372 10.3577 15.0001C10.3577 17.5629 12.4377 19.6429 15.0006 19.6429C16.282 19.6429 17.452 19.1229 18.2877 18.2779C18.8913 19.1044 19.9313 19.6429 21.0363 19.6429C22.8656 19.6429 24.2863 18.1572 24.2863 16.3279V15.0001C24.2863 9.87436 20.1263 5.71436 15.0006 5.71436ZM15.0006 17.7858C13.4591 17.7858 12.2148 16.5415 12.2148 15.0001C12.2148 13.4586 13.4591 12.2144 15.0006 12.2144C16.542 12.2144 17.7863 13.4586 17.7863 15.0001C17.7863 16.5415 16.542 17.7858 15.0006 17.7858Z" fill="white"/>
    </g>
    <defs>
    <clipPath id="clip0_14_1459">
    <rect width="30" height="30" fill="white"/>
    </clipPath>
    </defs>
  </symbol>

  <symbol fill="none" xmlns="http://www.w3.org/2000/svg" viewBox="0 0 30 30" id="phone-real">
    <g clip-path="url(#clip0_14_1462)">
    <path d="M15 0C6.71573 0 0 6.71573 0 15C0 23.2843 6.71573 30 15 30C23.2843 30 30 23.2843 30 15C30 6.71573 23.2843 0 15 0ZM9.60938 5.95825C9.91843 5.94003 10.1978 6.12475 10.4096 6.45263L12.4603 10.3418C12.6763 10.8026 12.5536 11.2961 12.2315 11.6254L11.2921 12.5647C11.2342 12.6441 11.196 12.7336 11.1951 12.832C11.5553 14.2264 12.648 15.5126 13.6121 16.3971C14.5762 17.2816 15.6123 18.4791 16.9574 18.7628C17.1237 18.8092 17.3273 18.8258 17.4463 18.7152L18.5376 17.6038C18.9143 17.3183 19.4593 17.1799 19.8615 17.4134H19.8798L23.5803 19.5978C24.1235 19.9383 24.1798 20.5964 23.7909 20.9967L21.2421 23.5254C20.8657 23.9114 20.3656 24.0412 19.8798 24.0418C17.7311 23.9774 15.7009 22.9228 14.0333 21.839C11.296 19.8477 8.78518 17.3779 7.20888 14.3939C6.60433 13.1427 5.89415 11.5462 5.96193 10.1496C5.96798 9.62418 6.11013 9.10945 6.48013 8.7708L9.02895 6.22198C9.2275 6.05303 9.42393 5.9692 9.60938 5.95825Z" fill="#292929"/>
    </g>
    <defs>
    <clipPath id="clip0_14_1462">
    <rect width="30" height="30" fill="white"/>
    </clipPath>
    </defs>
  </symbol>

</svg>