<svg width="20" height="20" fill="none" xmlns="http://www.w3.org/2000/svg"><g clip-path="url(#clip0_56_355)"><path d="M11.603 9.833L9.357 8.785c-.196-.091-.357.01-.357.228v1.974c0 .217.161.319.357.228l2.245-1.048c.197-.092.197-.242.001-.334zM10 .4A9.6 9.6 0 00.4 10a9.6 9.6 0 009.6 9.6 9.6 9.6 0 009.6-9.6A9.6 9.6 0 0010 .4zm0 13.5c-4.914 0-5-.443-5-3.9s.086-3.9 5-3.9 5 .443 5 3.9-.086 3.9-5 3.9z" fill="#292929"/></g><defs><clipPath id="clip0_56_355"><path fill="#fff" d="M0 0h20v20H0z"/></clipPath></defs></svg>