<svg width="20" height="20" fill="none" xmlns="http://www.w3.org/2000/svg"><g clip-path="url(#clip0_56_352)"><path d="M11.67 9.826L9.33 8.734c-.204-.094-.372.012-.372.238v2.056c0 .226.168.332.372.238l2.339-1.092c.205-.096.205-.252 0-.348zM10 0C4.477 0 0 4.477 0 10s4.477 10 10 10 10-4.477 10-10S15.523 0 10 0zm0 14.063c-5.119 0-5.208-.462-5.208-4.063 0-3.601.09-4.063 5.208-4.063 5.119 0 5.208.462 5.208 4.063 0 3.601-.09 4.063-5.208 4.063z" fill="#292929"/><path fill-rule="evenodd" clip-rule="evenodd" d="M10 14.063c-5.119 0-5.208-.462-5.208-4.063 0-3.601.09-4.063 5.208-4.063 5.119 0 5.208.462 5.208 4.063 0 3.601-.09 4.063-5.208 4.063zm-.67-5.329l2.34 1.092c.204.096.204.252-.001.348L9.33 11.266c-.204.094-.372-.012-.372-.238V8.972c0-.226.168-.332.372-.238z" fill="#292929"/><path fill-rule="evenodd" clip-rule="evenodd" d="M15.177 14.203h-1.285c-.341 0-.515-.204-.889-.642-.16-.187-.355-.417-.616-.692-.761-.774-1.083-.87-1.276-.87-.266 0-.339.077-.339.464v1.218c0 .33-.101.523-.918.523a4.833 4.833 0 01-2.242-.74 5.15 5.15 0 01-1.676-1.737A11.055 11.055 0 013.908 7.24c0-.204.073-.387.44-.387h1.285c.33 0 .449.155.579.512.623 1.935 1.687 3.618 2.12 3.618.165 0 .237-.077.237-.513V8.478c-.034-.56-.22-.804-.358-.986-.087-.113-.155-.203-.155-.33a.341.341 0 01.105-.225.307.307 0 01.225-.084h2.019c.276 0 .367.144.367.493v2.689c0 .29.12.387.202.387.166 0 .293-.097.596-.416a11.275 11.275 0 001.579-2.767.58.58 0 01.218-.292.532.532 0 01.341-.094h1.286c.385 0 .467.203.385.493a17.142 17.142 0 01-1.725 3.124c-.139.223-.194.34 0 .6.065.104.216.26.388.437.163.168.345.357.493.54.44.463.806.999 1.082 1.586.11.377-.074.571-.44.571z" fill="#fff"/></g><defs><clipPath id="clip0_56_352"><path fill="#fff" d="M0 0h20v20H0z"/></clipPath></defs></svg>