<svg width="20" height="20" fill="none" xmlns="http://www.w3.org/2000/svg"><path d="M7.769 7.92h.15V3.154H3.155v4.765h4.614zm8.929 0h.15V3.154h-4.766v4.765h4.615zm0 8.928h.15v-4.765h-4.766v4.766h4.615zM5.03 14.466v.15h3.007a.03.03 0 01.028.028v1.072a.03.03 0 01-.028.028H5.03v3.007a.03.03 0 01-.03.029H3.93a.03.03 0 01-.029-.029v-3.007H.894a.03.03 0 01-.029-.028v-1.072a.03.03 0 01.029-.028H3.9v-3.007a.03.03 0 01.029-.029H5a.03.03 0 01.029.028v2.858zM2.144 1.937H8.93c.113 0 .207.094.207.207V8.93a.208.208 0 01-.207.207H2.144a.208.208 0 01-.207-.207V2.144c0-.113.093-.207.207-.207zm8.928 0h6.786c.114 0 .207.094.207.207V8.93a.208.208 0 01-.207.207h-6.786a.208.208 0 01-.207-.207V2.144c0-.113.094-.207.207-.207zm0 8.929h6.786c.114 0 .207.093.207.207v6.785a.208.208 0 01-.207.208h-6.786a.208.208 0 01-.207-.207v-6.786c0-.114.094-.207.207-.207z" fill="#000" fill-opacity=".85" stroke="#fff" stroke-width=".3"/></svg>