<svg width="46" height="46" fill="none" xmlns="http://www.w3.org/2000/svg"><g clip-path="url(#clip0_421_420)"><path fill-rule="evenodd" clip-rule="evenodd" d="M36.773 22.103a3.738 3.738 0 011.045-.148c2.308 0 4.181 2.107 4.181 4.704 0 2.596-1.873 4.704-4.181 4.704-.36 0-.711-.052-1.045-.149v-9.11zm-27.549 0a3.738 3.738 0 00-1.046-.148c-2.308 0-4.181 2.107-4.181 4.704 0 2.596 1.873 4.704 4.181 4.704.36 0 .711-.052 1.046-.149v-9.11z" fill="#6558FF"/><path d="M16.911 25.09a2.09 2.09 0 100-4.18 2.09 2.09 0 000 4.18zm12.545 0a2.09 2.09 0 100-4.181 2.09 2.09 0 000 4.181z" fill="#6558FF"/><path fill-rule="evenodd" clip-rule="evenodd" d="M17.92 30.599c1.751 1.536 3.538 2.274 5.334 2.277 1.784 0 3.606-.728 5.436-2.262a1.046 1.046 0 00-1.344-1.602c-1.386 1.161-2.739 1.774-4.09 1.773-1.341-.001-2.65-.61-3.957-1.758a1.046 1.046 0 00-1.38 1.572zm-9.505-4.206s-1.04-3.701-.687-7.995c.23-2.784 1.044-5.834 3.186-8.236 2.318-2.597 6.175-4.391 12.4-4.391 6.236 0 10.127 1.754 12.49 4.295 2.178 2.341 3.04 5.314 3.313 8.028.422 4.18-.557 7.786-.557 7.786a1.046 1.046 0 002.017.549s1.083-3.956.62-8.544c-.315-3.133-1.35-6.543-3.862-9.244-2.66-2.859-6.999-4.961-14.02-4.961-7.034 0-11.343 2.157-13.96 5.09-2.465 2.763-3.446 6.253-3.71 9.457-.386 4.69.758 8.733.758 8.733a1.046 1.046 0 002.012-.567z" fill="#6558FF"/><path fill-rule="evenodd" clip-rule="evenodd" d="M37.818 18.315a6.274 6.274 0 00-6.271-6.272H14.82a6.274 6.274 0 00-6.271 6.272v15.68a6.274 6.274 0 006.271 6.271h16.727a6.274 6.274 0 006.27-6.272v-15.68zm-2.09 0v15.68a4.184 4.184 0 01-4.181 4.18H14.82a4.184 4.184 0 01-4.181-4.18v-15.68a4.184 4.184 0 014.181-4.182h16.727a4.184 4.184 0 014.181 4.182z" fill="#6558FF"/><path d="M12.208 42.32a4.704 4.704 0 100-9.408 4.704 4.704 0 000 9.408z" fill="#90BE6D"/></g><defs><clipPath id="clip0_421_420"><path fill="#fff" d="M0 0h46v46H0z"/></clipPath></defs></svg>