<svg width="20" height="20" fill="none" xmlns="http://www.w3.org/2000/svg"><path d="M17.19 9.048a7.757 7.757 0 00-1.851-2.572l-.65-.596a.18.18 0 00-.29.074l-.29.833c-.181.522-.514 1.055-.985 1.58a.14.14 0 01-.091.045.123.123 0 01-.096-.034.131.131 0 01-.045-.107c.083-1.344-.319-2.86-1.198-4.509-.728-1.37-1.74-2.44-3.003-3.185L7.77.034a.179.179 0 00-.268.163L7.55 1.27c.033.732-.052 1.38-.252 1.917a6.365 6.365 0 01-1.05 1.82 6.61 6.61 0 01-1.06 1.028A7.87 7.87 0 002.95 8.746a7.762 7.762 0 00-.19 6.48 7.842 7.842 0 004.183 4.143 7.853 7.853 0 003.056.612c1.06 0 2.087-.206 3.056-.61a7.78 7.78 0 002.498-1.667 7.726 7.726 0 002.304-5.511c0-1.09-.224-2.147-.668-3.145zm-2.704 7.573A6.329 6.329 0 0110 18.461a6.329 6.329 0 01-4.486-1.84 6.199 6.199 0 01-1.853-4.428c0-.971.219-1.902.65-2.768A6.314 6.314 0 016.113 7.24a7.81 7.81 0 001.308-1.268 7.923 7.923 0 001.3-2.255c.124-.336.214-.683.27-1.038a6.765 6.765 0 011.366 1.795c.745 1.397 1.089 2.64 1.022 3.699a1.651 1.651 0 002.875 1.21c.297-.333.553-.672.768-1.018.312.4.573.834.781 1.303.355.8.536 1.65.536 2.525a6.195 6.195 0 01-1.853 4.428z" fill="#000" fill-opacity=".85"/></svg>