<svg width="60" height="60" fill="none" xmlns="http://www.w3.org/2000/svg"><mask id="a" style="mask-type:alpha" maskUnits="userSpaceOnUse" x="0" y="0" width="60" height="60"><path fill="#D9D9D9" d="M0 0h60v60H0z"/></mask><g mask="url(#a)"><path d="M26.438 40.625L43.25 23.812l-2.625-2.625-14.188 14.188-7.125-7.125-2.625 2.625 9.75 9.75zM30 53.75c-3.292 0-6.385-.625-9.28-1.875-2.897-1.25-5.407-2.938-7.532-5.063-2.126-2.124-3.813-4.635-5.063-7.532C6.875 36.385 6.25 33.292 6.25 30c0-3.292.625-6.386 1.875-9.282 1.25-2.895 2.938-5.405 5.063-7.53 2.124-2.126 4.635-3.813 7.532-5.063C23.615 6.875 26.708 6.25 30 6.25c3.292 0 6.386.625 9.282 1.875s5.406 2.938 7.53 5.063c2.126 2.124 3.813 4.635 5.063 7.53 1.25 2.896 1.875 5.99 1.875 9.282s-.625 6.385-1.875 9.28c-1.25 2.897-2.938 5.407-5.063 7.532-2.124 2.126-4.634 3.813-7.53 5.063-2.896 1.25-5.99 1.875-9.282 1.875zM30 50c5.583 0 10.313-1.938 14.188-5.813C48.062 40.313 50 35.584 50 30s-1.938-10.313-5.813-14.188C40.313 11.938 35.584 10 30 10s-10.313 1.938-14.188 5.813C11.938 19.686 10 24.416 10 30s1.938 10.313 5.813 14.188C19.686 48.062 24.416 50 30 50z" fill="#6558FF"/></g></svg>