<svg width="20" height="20" fill="none" xmlns="http://www.w3.org/2000/svg"><g clip-path="url(#clip0_111_679)"><mask id="a" fill="#fff"><path d="M17.643 16.449l.015-.02A9.952 9.952 0 0020 10c0-2.449-.88-4.69-2.34-6.429l-.015-.017a2.04 2.04 0 00-.071-.083l-.027-.031-.092-.105-.002-.002-.103-.114-.002-.002a11.521 11.521 0 00-.216-.226l-.003-.002-.107-.107-.006-.007a3.99 3.99 0 00-.1-.096c-.012-.011-.023-.022-.037-.033a1.774 1.774 0 00-.067-.063c-.006-.007-.015-.013-.022-.022A9.952 9.952 0 0010 0a9.962 9.962 0 00-6.792 2.66c-.007.007-.016.014-.023.023l-.067.065-.035.033c-.034.031-.067.065-.1.096l-.008.007-.107.107-.002.002c-.074.074-.145.15-.216.226l-.003.002a4.75 4.75 0 00-.102.114l-.003.002c-.03.034-.062.07-.091.105l-.027.031-.071.083-.016.018A9.961 9.961 0 000 10c0 2.449.88 4.69 2.34 6.429l.015.02.07.082.026.032.091.104c0 .003.003.003.003.005.033.038.067.076.102.111l.003.003c.071.076.142.151.214.225l.002.002c.036.036.07.072.105.105l.007.007A9.981 9.981 0 0010 20a9.962 9.962 0 007.016-2.875l.006-.007c.036-.035.072-.069.105-.105l.003-.002c.073-.073.145-.15.214-.225l.002-.003c.034-.038.07-.073.103-.111 0-.002.002-.002.002-.005.031-.033.062-.069.091-.105l.027-.03.074-.083zm.091-3.183a8.385 8.385 0 01-1.21 2.013 9.918 9.918 0 00-1.819-1.248c.26-1.047.42-2.196.462-3.406h3.204a8.344 8.344 0 01-.637 2.64zm.636-3.891h-3.203a16.689 16.689 0 00-.462-3.406 9.913 9.913 0 001.82-1.248 8.345 8.345 0 011.846 4.654zm-5.104-7.11a8.343 8.343 0 012.401 1.545 8.808 8.808 0 01-1.325.933c-.35-1.004-.8-1.877-1.322-2.576.083.032.165.065.246.099zm-2.023 15.639c-.205.16-.41.284-.618.366v-4.14a8.685 8.685 0 012.583.584 9.71 9.71 0 01-.648 1.514c-.388.723-.844 1.301-1.317 1.676zM12.56 3.772c.246.46.462.967.648 1.514a8.685 8.685 0 01-2.583.585V1.732c.205.083.413.203.618.366.473.373.929.951 1.317 1.674zm-1.935 9.105v-2.252h3.292a15.507 15.507 0 01-.363 2.853l-.007.027a9.934 9.934 0 00-2.922-.628zm0-3.502V7.123a9.934 9.934 0 002.922-.627l.007.026c.205.909.328 1.864.363 2.853h-3.292zm-1.25 1.25v2.252a9.93 9.93 0 00-2.922.627l-.007-.026a15.479 15.479 0 01-.363-2.853h3.292zm-3.292-1.25c.035-.987.158-1.944.363-2.853l.007-.026a9.918 9.918 0 002.922.627v2.252H6.083zm3.292 4.755v4.138a2.5 2.5 0 01-.618-.366c-.474-.373-.931-.953-1.32-1.677a10.11 10.11 0 01-.647-1.513 8.712 8.712 0 012.585-.582zm0-8.26a8.685 8.685 0 01-2.583-.584c.186-.55.4-1.056.648-1.514.388-.723.843-1.303 1.319-1.676.205-.16.41-.284.618-.366v4.14h-.002zm-2.64-3.604c.082-.034.162-.067.245-.099-.522.7-.971 1.572-1.322 2.576a8.652 8.652 0 01-1.325-.933 8.344 8.344 0 012.401-1.544zm-4.47 4.468a8.382 8.382 0 011.21-2.013c.556.48 1.166.9 1.82 1.248a16.687 16.687 0 00-.462 3.406H1.629a8.33 8.33 0 01.637-2.64zm-.636 3.891h3.204c.042 1.21.203 2.36.462 3.406a9.916 9.916 0 00-1.82 1.248 8.345 8.345 0 01-1.846-4.654zm5.105 7.11a8.344 8.344 0 01-2.401-1.545 8.817 8.817 0 011.325-.933c.35 1.004.8 1.877 1.322 2.576a8.11 8.11 0 01-.246-.099zm6.532 0l-.246.098c.522-.7.971-1.572 1.322-2.576.468.268.912.58 1.325.933a8.345 8.345 0 01-2.401 1.544z"/></mask><path d="M17.643 16.449l.015-.02A9.952 9.952 0 0020 10c0-2.449-.88-4.69-2.34-6.429l-.015-.017a2.04 2.04 0 00-.071-.083l-.027-.031-.092-.105-.002-.002-.103-.114-.002-.002a11.521 11.521 0 00-.216-.226l-.003-.002-.107-.107-.006-.007a3.99 3.99 0 00-.1-.096c-.012-.011-.023-.022-.037-.033a1.774 1.774 0 00-.067-.063c-.006-.007-.015-.013-.022-.022A9.952 9.952 0 0010 0a9.962 9.962 0 00-6.792 2.66c-.007.007-.016.014-.023.023l-.067.065-.035.033c-.034.031-.067.065-.1.096l-.008.007-.107.107-.002.002c-.074.074-.145.15-.216.226l-.003.002a4.75 4.75 0 00-.102.114l-.003.002c-.03.034-.062.07-.091.105l-.027.031-.071.083-.016.018A9.961 9.961 0 000 10c0 2.449.88 4.69 2.34 6.429l.015.02.07.082.026.032.091.104c0 .003.003.003.003.005.033.038.067.076.102.111l.003.003c.071.076.142.151.214.225l.002.002c.036.036.07.072.105.105l.007.007A9.981 9.981 0 0010 20a9.962 9.962 0 007.016-2.875l.006-.007c.036-.035.072-.069.105-.105l.003-.002c.073-.073.145-.15.214-.225l.002-.003c.034-.038.07-.073.103-.111 0-.002.002-.002.002-.005.031-.033.062-.069.091-.105l.027-.03.074-.083zm.091-3.183a8.385 8.385 0 01-1.21 2.013 9.918 9.918 0 00-1.819-1.248c.26-1.047.42-2.196.462-3.406h3.204a8.344 8.344 0 01-.637 2.64zm.636-3.891h-3.203a16.689 16.689 0 00-.462-3.406 9.913 9.913 0 001.82-1.248 8.345 8.345 0 011.846 4.654zm-5.104-7.11a8.343 8.343 0 012.401 1.545 8.808 8.808 0 01-1.325.933c-.35-1.004-.8-1.877-1.322-2.576.083.032.165.065.246.099zm-2.023 15.639c-.205.16-.41.284-.618.366v-4.14a8.685 8.685 0 012.583.584 9.71 9.71 0 01-.648 1.514c-.388.723-.844 1.301-1.317 1.676zM12.56 3.772c.246.46.462.967.648 1.514a8.685 8.685 0 01-2.583.585V1.732c.205.083.413.203.618.366.473.373.929.951 1.317 1.674zm-1.935 9.105v-2.252h3.292a15.507 15.507 0 01-.363 2.853l-.007.027a9.934 9.934 0 00-2.922-.628zm0-3.502V7.123a9.934 9.934 0 002.922-.627l.007.026c.205.909.328 1.864.363 2.853h-3.292zm-1.25 1.25v2.252a9.93 9.93 0 00-2.922.627l-.007-.026a15.479 15.479 0 01-.363-2.853h3.292zm-3.292-1.25c.035-.987.158-1.944.363-2.853l.007-.026a9.918 9.918 0 002.922.627v2.252H6.083zm3.292 4.755v4.138a2.5 2.5 0 01-.618-.366c-.474-.373-.931-.953-1.32-1.677a10.11 10.11 0 01-.647-1.513 8.712 8.712 0 012.585-.582zm0-8.26a8.685 8.685 0 01-2.583-.584c.186-.55.4-1.056.648-1.514.388-.723.843-1.303 1.319-1.676.205-.16.41-.284.618-.366v4.14h-.002zm-2.64-3.604c.082-.034.162-.067.245-.099-.522.7-.971 1.572-1.322 2.576a8.652 8.652 0 01-1.325-.933 8.344 8.344 0 012.401-1.544zm-4.47 4.468a8.382 8.382 0 011.21-2.013c.556.48 1.166.9 1.82 1.248a16.687 16.687 0 00-.462 3.406H1.629a8.33 8.33 0 01.637-2.64zm-.636 3.891h3.204c.042 1.21.203 2.36.462 3.406a9.916 9.916 0 00-1.82 1.248 8.345 8.345 0 01-1.846-4.654zm5.105 7.11a8.344 8.344 0 01-2.401-1.545 8.817 8.817 0 011.325-.933c.35 1.004.8 1.877 1.322 2.576a8.11 8.11 0 01-.246-.099zm6.532 0l-.246.098c.522-.7.971-1.572 1.322-2.576.468.268.912.58 1.325.933a8.345 8.345 0 01-2.401 1.544z" fill="#000" fill-opacity=".85" stroke="#fff" stroke-width=".6" mask="url(#a)"/></g><defs><clipPath id="clip0_111_679"><path fill="#fff" d="M0 0h20v20H0z"/></clipPath></defs></svg>