<svg width="25" height="26" fill="none" xmlns="http://www.w3.org/2000/svg"><path d="M12.501 9.875a3.125 3.125 0 100 6.25 3.125 3.125 0 000-6.25zm0-2.083a5.208 5.208 0 110 10.416 5.208 5.208 0 010-10.416zm6.77-.26a1.302 1.302 0 11-2.603 0 1.302 1.302 0 012.604 0zm-6.77-2.865c-2.577 0-2.998.007-4.197.06-.817.039-1.364.148-1.873.346-.425.156-.81.406-1.125.732a3.01 3.01 0 00-.733 1.125c-.198.51-.307 1.057-.345 1.873-.054 1.15-.061 1.552-.061 4.197 0 2.578.007 2.998.06 4.197.039.815.148 1.364.345 1.872.177.453.385.779.731 1.125.351.35.677.559 1.125.732.515.199 1.063.31 1.875.347 1.15.054 1.552.06 4.197.06 2.578 0 2.998-.007 4.197-.06.814-.039 1.362-.148 1.872-.345a3.03 3.03 0 001.125-.732c.35-.35.56-.676.733-1.125.198-.513.308-1.06.346-1.875.054-1.15.06-1.552.06-4.196 0-2.577-.007-2.998-.06-4.197-.039-.815-.15-1.365-.346-1.873a3.035 3.035 0 00-.732-1.125 3.005 3.005 0 00-1.125-.733c-.51-.198-1.059-.308-1.873-.345-1.15-.054-1.55-.06-4.196-.06zm0-2.084c2.83 0 3.183.01 4.295.063 1.108.052 1.864.226 2.528.484a5.08 5.08 0 011.846 1.201c.53.52.94 1.15 1.2 1.846.258.664.433 1.42.485 2.53.05 1.11.063 1.463.063 4.293s-.01 3.183-.063 4.294c-.052 1.109-.227 1.864-.484 2.529a5.088 5.088 0 01-1.201 1.846c-.521.53-1.15.939-1.846 1.2-.664.258-1.42.433-2.528.485-1.112.049-1.465.063-4.295.063s-3.183-.01-4.295-.063c-1.108-.052-1.863-.227-2.528-.484a5.095 5.095 0 01-1.846-1.201 5.11 5.11 0 01-1.2-1.846c-.26-.664-.433-1.42-.485-2.53-.05-1.11-.063-1.463-.063-4.293s.01-3.183.063-4.294c.052-1.11.226-1.864.484-2.529.26-.696.67-1.326 1.201-1.846a5.1 5.1 0 011.846-1.2c.664-.26 1.419-.433 2.528-.485 1.112-.05 1.465-.063 4.295-.063z" fill="#282828"/></svg>