<svg width="69" height="24" fill="none" xmlns="http://www.w3.org/2000/svg"><path d="M5.626 3.259c-.026-.326-.148-.58-.365-.761-.214-.183-.54-.274-.978-.274-.28 0-.508.035-.687.103a.825.825 0 00-.389.268.664.664 0 00-.131.39c-.007.12.014.23.063.327a.79.79 0 00.243.259c.11.075.252.143.424.205.172.061.376.117.613.165l.817.176a6.138 6.138 0 011.417.463c.392.192.713.418.963.679.25.256.433.546.55.868.12.322.182.673.185 1.053-.003.657-.167 1.213-.491 1.669-.325.455-.789.801-1.392 1.039-.6.237-1.322.356-2.166.356-.866 0-1.622-.129-2.268-.385C1.392 9.602.892 9.207.535 8.673.182 8.137.003 7.45 0 6.615h2.57c.016.305.092.562.228.77.137.208.328.366.575.474.25.107.546.16.89.16.289 0 .53-.035.725-.107a.979.979 0 00.443-.297.703.703 0 00.156-.435.617.617 0 00-.151-.4c-.094-.117-.25-.22-.467-.312a4.961 4.961 0 00-.881-.263l-.993-.215c-.882-.192-1.578-.512-2.088-.96C.501 4.576.25 3.96.253 3.18.25 2.546.42 1.992.76 1.517 1.103 1.04 1.58.667 2.185.4c.61-.267 1.31-.4 2.098-.4.804 0 1.5.135 2.087.405.588.27 1.04.65 1.358 1.141.321.488.484 1.059.487 1.713h-2.59zm3.754 6.868V.137h2.706v4.039h.136L15.22.136h3.154l-3.368 4.45 3.446 5.54H15.22L12.982 6.38l-.896 1.171v2.576H9.38zM21.883.137v9.99h-2.706V.137h2.706zm1.282 9.99V.137h2.706V7.94h4.03v2.186h-6.736zm7.829 0V.137H33.7V7.94h4.03v2.186h-6.736zm13.202-6.868c-.026-.326-.148-.58-.365-.761-.214-.183-.54-.274-.978-.274-.28 0-.508.035-.687.103a.825.825 0 00-.389.268.665.665 0 00-.131.39c-.007.12.014.23.063.327a.79.79 0 00.243.259c.11.075.252.143.424.205.172.061.376.117.613.165l.818.176a6.14 6.14 0 011.416.463c.392.192.714.418.963.679.25.256.434.546.55.868.12.322.182.673.185 1.053-.003.657-.167 1.213-.491 1.669-.325.455-.789.801-1.392 1.039-.6.237-1.322.356-2.166.356-.866 0-1.622-.129-2.268-.385-.642-.257-1.142-.652-1.498-1.186-.354-.536-.533-1.223-.536-2.058h2.57c.016.305.092.562.228.77.137.208.328.366.575.474.25.107.546.16.89.16.289 0 .53-.035.725-.107a.978.978 0 00.443-.297.704.704 0 00.156-.435.618.618 0 00-.15-.4c-.095-.117-.25-.22-.468-.312a4.962 4.962 0 00-.88-.263l-.994-.215c-.882-.192-1.578-.512-2.087-.96-.507-.453-.758-1.069-.755-1.85-.003-.634.166-1.188.506-1.663.344-.478.82-.85 1.426-1.117.61-.267 1.31-.4 2.098-.4.804 0 1.5.135 2.087.405.588.27 1.04.65 1.358 1.141.322.488.484 1.059.487 1.713h-2.59zM56.579.137h2.706v6.4c0 .76-.182 1.42-.545 1.975-.36.553-.863.98-1.509 1.283-.646.3-1.395.449-2.248.449-.86 0-1.613-.15-2.258-.449-.646-.302-1.149-.73-1.509-1.283-.357-.556-.535-1.214-.535-1.975v-6.4h2.706v6.165c0 .31.068.586.204.83.136.24.324.429.564.566.244.136.52.204.828.204.311 0 .587-.068.827-.204.24-.137.428-.326.564-.566a1.67 1.67 0 00.205-.83V.137zm3.991 9.99V.137h4.303c.74 0 1.387.146 1.942.439a3.18 3.18 0 011.294 1.234c.308.53.462 1.15.462 1.858 0 .716-.159 1.335-.477 1.859a3.136 3.136 0 01-1.328 1.21c-.568.283-1.231.424-1.99.424h-2.57V5.054h2.024c.318 0 .59-.056.813-.166.227-.114.4-.275.52-.483.124-.208.186-.454.186-.737 0-.286-.062-.53-.185-.731a1.161 1.161 0 00-.52-.469 1.82 1.82 0 00-.814-.166h-.953v7.825H60.57zm-50.08 6.868c-.025-.325-.147-.579-.364-.76-.215-.183-.54-.274-.979-.274-.279 0-.507.034-.686.102a.826.826 0 00-.39.269.664.664 0 00-.13.39c-.007.12.014.23.063.327a.79.79 0 00.243.258c.11.075.251.143.423.205s.377.117.614.166l.817.176a6.133 6.133 0 011.416.463c.393.192.714.418.964.678.25.257.433.546.55.868.12.322.182.674.185 1.054-.003.657-.167 1.213-.492 1.668-.324.456-.788.802-1.392 1.04-.6.237-1.322.355-2.165.355-.866 0-1.622-.128-2.268-.385-.642-.257-1.142-.652-1.499-1.185-.354-.537-.532-1.223-.535-2.059h2.57c.016.306.092.563.228.771.136.208.328.366.574.473.25.107.547.161.89.161.29 0 .531-.036.726-.107a.98.98 0 00.443-.298.703.703 0 00.156-.434.617.617 0 00-.151-.4c-.094-.117-.25-.221-.467-.312a4.962 4.962 0 00-.881-.263l-.993-.215c-.883-.192-1.578-.512-2.088-.961-.506-.452-.757-1.068-.754-1.849-.003-.634.165-1.189.506-1.663.344-.478.82-.85 1.426-1.117.61-.267 1.309-.4 2.097-.4.805 0 1.5.134 2.088.405.587.27 1.04.65 1.358 1.14.321.489.483 1.06.487 1.713h-2.59zm13.06.625h-2.745a1.87 1.87 0 00-.155-.62 1.399 1.399 0 00-.341-.478 1.422 1.422 0 00-.52-.312 2.016 2.016 0 00-.697-.112c-.454 0-.838.11-1.153.331-.312.221-.549.539-.71.952-.16.413-.24.908-.24 1.487 0 .612.082 1.124.244 1.537.166.41.404.719.716.927.311.205.686.307 1.124.307.25 0 .473-.03.671-.093.198-.065.37-.157.516-.278a1.44 1.44 0 00.355-.434c.095-.172.158-.366.19-.58l2.745.02c-.032.422-.15.853-.355 1.292a4.203 4.203 0 01-.871 1.21 4.207 4.207 0 01-1.387.887c-.552.225-1.193.337-1.923.337-.915 0-1.735-.197-2.462-.59-.724-.394-1.296-.973-1.718-1.737-.419-.764-.628-1.699-.628-2.805 0-1.112.214-2.048.643-2.81.428-.764 1.005-1.34 1.732-1.731.727-.394 1.538-.59 2.433-.59.63 0 1.209.086 1.738.258a4.21 4.21 0 011.392.756c.399.329.72.734.963 1.215.244.481.391 1.032.443 1.653zm1.228 6.243v-9.99h2.705v3.903h3.582v-3.903h2.706v9.99h-2.706v-3.902h-3.582v3.902h-2.705zm19.933-4.995c0 1.113-.216 2.05-.647 2.815a4.349 4.349 0 01-1.747 1.732c-.733.39-1.551.585-2.453.585-.908 0-1.73-.197-2.462-.59a4.392 4.392 0 01-1.743-1.737c-.428-.764-.642-1.699-.642-2.805 0-1.112.214-2.048.642-2.81.432-.764 1.013-1.34 1.742-1.731.734-.394 1.555-.59 2.463-.59.902 0 1.72.196 2.453.59.733.39 1.315.967 1.747 1.731.431.762.647 1.698.647 2.81zm-2.783 0c0-.598-.08-1.102-.239-1.512-.156-.413-.388-.725-.696-.937-.305-.214-.681-.321-1.129-.321-.448 0-.826.107-1.134.322-.305.21-.537.523-.696.936-.155.41-.233.914-.233 1.512 0 .599.078 1.104.233 1.517.16.41.391.722.696.937.308.211.686.317 1.134.317.448 0 .824-.106 1.13-.317.307-.215.54-.527.695-.937.159-.413.239-.918.239-1.517zm13.69 0c0 1.113-.215 2.05-.647 2.815a4.348 4.348 0 01-1.747 1.732c-.733.39-1.55.585-2.453.585-.908 0-1.729-.197-2.462-.59a4.392 4.392 0 01-1.742-1.737c-.429-.764-.643-1.699-.643-2.805 0-1.112.214-2.048.642-2.81.432-.764 1.013-1.34 1.743-1.731.733-.394 1.554-.59 2.462-.59.902 0 1.72.196 2.453.59.733.39 1.316.967 1.747 1.731.432.762.647 1.698.647 2.81zm-2.783 0c0-.598-.08-1.102-.239-1.512-.155-.413-.387-.725-.696-.937-.305-.214-.681-.321-1.129-.321-.447 0-.825.107-1.134.322-.305.21-.537.523-.696.936-.155.41-.233.914-.233 1.512 0 .599.078 1.104.233 1.517.16.41.391.722.696.937.309.211.687.317 1.134.317.448 0 .824-.106 1.13-.317.307-.215.54-.527.695-.937.16-.413.239-.918.239-1.517zm4.035 4.995v-9.99h2.706v7.805h4.03v2.185H56.87z" fill="#292929"/></svg>