<svg width="20" height="20" fill="none" xmlns="http://www.w3.org/2000/svg"><g clip-path="url(#clip0_111_690)"><path d="M16.968 3.032h0a9.812 9.812 0 012.883 7.012 9.828 9.828 0 01-.79 3.837h0a9.755 9.755 0 01-2.122 3.122h0a9.77 9.77 0 01-3.14 2.093 9.855 9.855 0 01-3.797.754h-.046s0 0 0 0a9.881 9.881 0 01-4.395-1.055l-.032-.016H2.098a.877.877 0 01-.876-.877v-3.429l-.016-.032A9.882 9.882 0 01.15 10.046h0A9.854 9.854 0 01.904 6.2h0a9.76 9.76 0 012.093-3.14h0A9.79 9.79 0 016.12.94h0A9.827 9.827 0 019.956.15H10a9.8 9.8 0 013.817.765h0a9.768 9.768 0 013.15 2.117zm-1.012 12.976h0a8.422 8.422 0 002.502-5.97h0a8.42 8.42 0 00-2.475-6.017 8.413 8.413 0 00-5.981-2.475h-.038 0a8.391 8.391 0 00-5.972 2.498 8.402 8.402 0 00-2.445 5.995h0a8.483 8.483 0 00.988 3.933h0l.083.155v3.255h3.255l.155.083h0a8.483 8.483 0 003.933.989H10a8.41 8.41 0 005.956-2.446zM9.35 10.652a.921.921 0 111.302-1.303.921.921 0 01-1.302 1.303zm4.464 0a.921.921 0 111.303-1.304.921.921 0 01-1.303 1.303zm-8.929 0a.921.921 0 111.303-1.303.921.921 0 01-1.303 1.303z" fill="#000" fill-opacity=".85" stroke="#fff" stroke-width=".3"/></g><defs><clipPath id="clip0_111_690"><path fill="#fff" d="M0 0h20v20H0z"/></clipPath></defs></svg>