<svg width="21" height="20" fill="none" xmlns="http://www.w3.org/2000/svg"><path d="M19.558 3.432h.002c.02-.003.032.013.03.027v.002l-.536 4.446s0 0 0 0a.029.029 0 01-.02.024.029.029 0 01-.029-.007s0 0 0 0l-1.323-1.323-.106-.106-.107.106-6.058 6.054h0a.208.208 0 01-.292-.001s0 0 0 0l-2.27-2.27-.106-.106-.106.106-6.176 6.174h0a.028.028 0 01-.02.009.028.028 0 01-.02-.009L1.416 15.55s0 0 0 0a.03.03 0 010-.04v-.001l7.18-7.183c.08-.08.21-.081.292 0h0l2.273 2.27.106.107.106-.106 5.044-5.045.106-.106-.106-.106-1.323-1.324a.026.026 0 01-.008-.013c-.001-.005 0-.01.001-.016a.031.031 0 01.009-.014.026.026 0 01.014-.005l4.447-.536z" fill="#000" fill-opacity=".85" stroke="#fff" stroke-width=".3"/></svg>