<svg width="38" height="36" fill="none" xmlns="http://www.w3.org/2000/svg"><path d="M37.843 13.518a3.169 3.169 0 00-2.516-2.157l-9.061-1.473-4.201-8.163a3.182 3.182 0 00-5.658 0l-4.2 8.163-9.062 1.473a3.182 3.182 0 00-1.748 5.38l6.465 6.518-1.4 9.073a3.18 3.18 0 004.578 3.326l8.196-4.135 8.197 4.135a3.181 3.181 0 004.577-3.326l-1.4-9.073 6.466-6.517a3.17 3.17 0 00.767-3.224zm-2.544 1.462l-7.354 7.413 1.592 10.32a.678.678 0 01-.978.711l-9.323-4.703-9.323 4.703a.678.678 0 01-.978-.71l1.592-10.32-7.354-7.414a.68.68 0 01.373-1.15l10.308-1.675 4.778-9.285a.68.68 0 011.208 0l4.779 9.285 10.307 1.675a.68.68 0 01.373 1.15z" fill="#FC0"/><path d="M35.3 14.98l-7.355 7.413 1.592 10.32a.678.678 0 01-.978.711l-9.323-4.703-9.323 4.703a.678.678 0 01-.978-.71l1.592-10.32-7.354-7.414a.68.68 0 01.373-1.15l10.308-1.675 4.778-9.285a.68.68 0 011.208 0l4.779 9.285 10.307 1.675a.68.68 0 01.373 1.15z" fill="#FC0"/></svg>