<svg width="80" height="28" fill="none" xmlns="http://www.w3.org/2000/svg"><path d="M6.563 3.802c-.03-.38-.172-.676-.425-.888-.25-.213-.63-.319-1.142-.319-.325 0-.592.04-.8.12a.963.963 0 00-.454.313.775.775 0 00-.154.455.75.75 0 00.074.381c.06.11.155.21.284.302.129.087.293.167.494.239.2.072.439.136.715.193l.954.205c.644.137 1.194.317 1.652.54a3.96 3.96 0 011.125.792c.291.3.505.637.641 1.013.14.376.212.785.216 1.23-.004.766-.195 1.414-.574 1.946-.378.53-.92.935-1.623 1.212-.7.277-1.543.415-2.527.415-1.01 0-1.892-.15-2.646-.45-.75-.3-1.332-.76-1.748-1.382C.212 9.493.004 8.692 0 7.717h2.998c.019.357.108.656.267.9.159.242.382.426.67.551.291.126.637.188 1.039.188.337 0 .619-.042.846-.125.227-.084.399-.2.516-.347a.82.82 0 00.182-.507.72.72 0 00-.176-.466c-.11-.137-.291-.258-.545-.365a5.789 5.789 0 00-1.028-.307l-1.158-.25c-1.03-.224-1.841-.598-2.436-1.122-.59-.527-.884-1.246-.88-2.156-.004-.74.193-1.387.59-1.941.402-.558.956-.992 1.664-1.303C3.261.156 4.077 0 4.996 0c.94 0 1.751.157 2.436.472.685.315 1.213.76 1.584 1.332.375.57.564 1.235.568 1.998h-3.02zm4.381 8.013V.159H14.1v4.713h.16L17.756.159h3.68l-3.93 5.19 4.02 6.466h-3.77l-2.612-4.371L14.1 8.81v3.005h-3.157zM25.53.16v11.655h-3.157V.159h3.157zm1.496 11.655V.159h3.157v9.106h4.7v2.55h-7.857zm9.134 0V.159h3.157v9.106h4.7v2.55H36.16zm15.402-8.013c-.03-.38-.172-.676-.426-.888-.25-.213-.63-.319-1.141-.319-.326 0-.592.04-.8.12a.963.963 0 00-.455.313.775.775 0 00-.153.455.749.749 0 00.074.381c.06.11.155.21.283.302.13.087.294.167.494.239.201.072.44.136.716.193l.954.205c.643.137 1.194.317 1.652.54a3.94 3.94 0 011.124.792c.291.3.505.637.642 1.013.14.376.212.785.215 1.23-.003.766-.194 1.414-.573 1.946-.379.53-.92.935-1.624 1.212-.7.277-1.542.415-2.526.415-1.011 0-1.893-.15-2.646-.45-.75-.3-1.333-.76-1.749-1.382-.412-.626-.62-1.427-.624-2.402h2.997c.02.357.108.656.267.9.16.242.383.426.67.551.292.126.638.188 1.04.188.336 0 .618-.042.845-.125.227-.084.4-.2.517-.347a.82.82 0 00.181-.507.72.72 0 00-.175-.466c-.11-.137-.292-.258-.546-.365a5.786 5.786 0 00-1.027-.307l-1.159-.25c-1.03-.224-1.841-.598-2.435-1.122-.59-.527-.884-1.246-.88-2.156-.004-.74.193-1.387.59-1.941.401-.558.956-.992 1.664-1.303C48.259.156 49.075 0 49.995 0c.939 0 1.75.157 2.436.472.685.315 1.213.76 1.584 1.332.374.57.564 1.235.567 1.998h-3.02zM66.009.16h3.157v7.466c0 .888-.212 1.656-.636 2.305-.42.645-1.007 1.144-1.76 1.497-.754.349-1.628.523-2.623.523-1.004 0-1.882-.174-2.635-.523-.753-.353-1.34-.852-1.76-1.497-.416-.649-.625-1.417-.625-2.305V.159h3.157v7.194c0 .36.08.683.239.967.159.281.378.501.658.66.284.16.606.24.966.24.363 0 .685-.08.965-.24.28-.159.5-.379.658-.66a1.95 1.95 0 00.239-.967V.159zm4.657 11.655V.159h5.019c.863 0 1.618.171 2.265.513a3.697 3.697 0 011.51 1.44c.36.618.54 1.34.54 2.168 0 .834-.186 1.557-.556 2.168a3.659 3.659 0 01-1.55 1.411c-.663.33-1.437.495-2.323.495h-2.997V5.896h2.362c.37 0 .686-.065.948-.194.265-.132.467-.32.607-.563.144-.243.216-.53.216-.86 0-.333-.072-.618-.216-.853a1.355 1.355 0 00-.607-.546c-.261-.13-.578-.194-.948-.194h-1.113v9.129h-3.157zm-58.427 8.013c-.03-.38-.172-.676-.426-.888-.25-.213-.63-.319-1.141-.319-.326 0-.593.04-.8.12a.962.962 0 00-.455.313.775.775 0 00-.153.455.75.75 0 00.074.381c.06.11.155.21.284.302.128.087.293.167.494.239.2.072.439.136.715.193l.954.205c.643.137 1.194.317 1.652.54a3.96 3.96 0 011.124.792c.292.3.505.637.642 1.013.14.376.212.785.216 1.23-.004.766-.196 1.414-.574 1.946-.379.53-.92.935-1.624 1.212-.7.277-1.542.415-2.526.415-1.011 0-1.893-.15-2.646-.45-.75-.3-1.333-.76-1.749-1.382-.412-.626-.62-1.427-.624-2.402h2.997c.02.357.108.657.267.9.16.242.383.426.67.551.292.126.638.188 1.04.188.336 0 .618-.042.845-.125.227-.084.4-.2.517-.347a.82.82 0 00.181-.507.72.72 0 00-.175-.466c-.11-.137-.292-.258-.546-.365a5.786 5.786 0 00-1.027-.307l-1.158-.25c-1.03-.224-1.842-.598-2.436-1.122-.59-.527-.884-1.246-.88-2.156-.004-.74.193-1.387.59-1.941.402-.558.956-.992 1.664-1.303.711-.311 1.527-.467 2.447-.467.939 0 1.75.157 2.436.472.685.315 1.213.76 1.584 1.332.374.57.564 1.235.567 1.998h-3.02zm15.236.728h-3.202a2.181 2.181 0 00-.182-.723 1.633 1.633 0 00-.397-.557 1.666 1.666 0 00-.608-.365 2.351 2.351 0 00-.812-.13c-.53 0-.978.129-1.345.387-.364.258-.64.627-.83 1.11-.185.481-.277 1.06-.277 1.735 0 .713.094 1.31.283 1.793.193.478.472.838.835 1.081.363.239.8.358 1.312.358.291 0 .552-.036.783-.108.231-.076.432-.184.602-.324.17-.14.308-.31.414-.506.11-.202.184-.427.222-.678l3.202.023a4.358 4.358 0 01-.414 1.508 4.905 4.905 0 01-1.017 1.412 4.897 4.897 0 01-1.618 1.035c-.643.262-1.39.393-2.243.393-1.067 0-2.025-.23-2.872-.689-.845-.459-1.513-1.134-2.005-2.026-.488-.891-.732-1.982-.732-3.272 0-1.298.25-2.39.75-3.278.499-.892 1.173-1.565 2.02-2.02.848-.46 1.795-.689 2.84-.689.734 0 1.41.1 2.026.302a4.875 4.875 0 011.624.882c.466.383.84.855 1.124 1.417.284.561.457 1.204.517 1.93zm1.432 7.284V16.186h3.157v4.553h4.179v-4.553H39.4v11.656h-3.157v-4.553h-4.179v4.553h-3.157zm23.256-5.827c0 1.298-.252 2.392-.755 3.284-.504.888-1.183 1.561-2.038 2.02-.856.455-1.81.683-2.862.683-1.06 0-2.017-.23-2.873-.689-.852-.462-1.53-1.138-2.032-2.026-.5-.891-.75-1.982-.75-3.272 0-1.298.25-2.39.75-3.278.503-.892 1.18-1.565 2.032-2.02.856-.46 1.813-.689 2.873-.689 1.052 0 2.006.23 2.862.689.855.455 1.535 1.128 2.038 2.02.503.888.755 1.98.755 3.278zm-3.248 0c0-.698-.092-1.286-.278-1.764-.181-.482-.452-.846-.812-1.093-.356-.25-.795-.375-1.317-.375-.522 0-.963.125-1.323.375-.356.247-.626.61-.812 1.093-.181.478-.272 1.066-.272 1.764s.09 1.288.272 1.77c.186.478.456.842.812 1.093.36.246.8.37 1.323.37.522 0 .961-.124 1.317-.37.36-.25.63-.615.812-1.093.186-.482.278-1.072.278-1.77zm15.973 0c0 1.298-.252 2.392-.755 3.284-.503.888-1.183 1.561-2.038 2.02-.856.455-1.81.683-2.862.683-1.06 0-2.017-.23-2.873-.689-.851-.462-1.529-1.138-2.032-2.026-.5-.891-.75-1.982-.75-3.272 0-1.298.25-2.39.75-3.278.503-.892 1.18-1.565 2.032-2.02.856-.46 1.813-.689 2.873-.689 1.052 0 2.006.23 2.862.689.855.455 1.535 1.128 2.038 2.02.503.888.755 1.98.755 3.278zm-3.248 0c0-.698-.092-1.286-.278-1.764-.181-.482-.452-.846-.812-1.093-.355-.25-.794-.375-1.317-.375-.522 0-.963.125-1.323.375-.355.247-.626.61-.812 1.093-.181.478-.272 1.066-.272 1.764s.09 1.288.272 1.77c.186.478.456.842.812 1.093.36.246.8.37 1.323.37.523 0 .962-.124 1.317-.37.36-.25.63-.615.812-1.093.186-.482.279-1.072.279-1.77zm4.709 5.827V16.186h3.156v9.106h4.702v2.55h-7.858z" fill="#fff"/></svg>