<svg width="25" height="24" fill="none" xmlns="http://www.w3.org/2000/svg"><path d="M22.241 3.192a3.159 3.159 0 00-4.324-.168 3.159 3.159 0 00-4.325.168 3.24 3.24 0 000 4.533l4.323 4.38.002-.002.001.001 4.323-4.379a3.239 3.239 0 000-4.533zm-1.068 3.48l-3.255 3.297-.001-.001-.002.001-3.255-3.298a1.731 1.731 0 010-2.425 1.698 1.698 0 012.367 0l.886.905.004-.004.003.004.885-.905a1.698 1.698 0 012.368 0 1.731 1.731 0 010 2.425zM12.667 22.5h-1.5v-3.75a2.252 2.252 0 00-2.25-2.25h-3a2.252 2.252 0 00-2.25 2.25v3.75h-1.5v-3.75A3.754 3.754 0 015.917 15h3a3.755 3.755 0 013.75 3.75v3.75zm-5.25-15a2.25 2.25 0 110 4.5 2.25 2.25 0 010-4.5zm0-1.5a3.75 3.75 0 100 7.5 3.75 3.75 0 000-7.5z" fill="#000"/></svg>