<svg width="25" height="24" fill="none" xmlns="http://www.w3.org/2000/svg"><path d="M7.833 10.5a1.5 1.5 0 100-3 1.5 1.5 0 000 3zm4.501-2.25a1.5 1.5 0 100-3 1.5 1.5 0 000 3zm4.5 2.25a1.5 1.5 0 100-3 1.5 1.5 0 000 3zm.75 4.5a1.5 1.5 0 100-3 1.5 1.5 0 000 3zm-3 3.75a1.5 1.5 0 100-3 1.5 1.5 0 000 3z" fill="#000"/><path d="M12.739 1.5A10.5 10.5 0 001.832 12 3.615 3.615 0 006.4 15.488l.84-.233a2.25 2.25 0 012.843 2.175v2.82a2.25 2.25 0 002.25 2.25 10.5 10.5 0 0010.5-10.905A10.537 10.537 0 0012.739 1.5zm6.082 16.733A8.947 8.947 0 0112.333 21a.75.75 0 01-.75-.75v-2.82a3.75 3.75 0 00-4.747-3.615l-.84.232A2.114 2.114 0 013.333 12a9 9 0 019.353-9 9.135 9.135 0 018.648 8.648 8.918 8.918 0 01-2.513 6.592v-.007z" fill="#000"/></svg>