<svg width="33" height="32" viewBox="0 0 33 32" fill="none" xmlns="http://www.w3.org/2000/svg">
<path d="M23.3741 15.2924L13.3741 5.29243C13.2812 5.19952 13.1709 5.12582 13.0495 5.07554C12.9281 5.02526 12.798 4.99937 12.6666 4.99937C12.5352 4.99937 12.4051 5.02526 12.2837 5.07554C12.1623 5.12582 12.052 5.19952 11.9591 5.29243C11.8662 5.38534 11.7925 5.49564 11.7422 5.61703C11.6919 5.73843 11.666 5.86854 11.666 5.99993C11.666 6.13133 11.6919 6.26143 11.7422 6.38283C11.7925 6.50422 11.8662 6.61452 11.9591 6.70743L21.2528 15.9999L11.9591 25.2924C11.7714 25.4801 11.666 25.7346 11.666 25.9999C11.666 26.2653 11.7714 26.5198 11.9591 26.7074C12.1467 26.8951 12.4012 27.0005 12.6666 27.0005C12.9319 27.0005 13.1864 26.8951 13.3741 26.7074L23.3741 16.7074C23.467 16.6146 23.5408 16.5043 23.5911 16.3829C23.6415 16.2615 23.6674 16.1313 23.6674 15.9999C23.6674 15.8685 23.6415 15.7384 23.5911 15.617C23.5408 15.4956 23.467 15.3853 23.3741 15.2924Z" fill="#828282"/>
</svg>
