<svg width="25" height="25" viewBox="0 0 25 25" fill="none" xmlns="http://www.w3.org/2000/svg">
<path d="M12.5 2.75024C10.5716 2.75024 8.68657 3.32207 7.08319 4.39342C5.47982 5.46476 4.23013 6.9875 3.49218 8.76908C2.75422 10.5507 2.56114 12.5111 2.93735 14.4024C3.31355 16.2937 4.24215 18.031 5.60571 19.3945C6.96928 20.7581 8.70656 21.6867 10.5979 22.0629C12.4892 22.4391 14.4496 22.246 16.2312 21.5081C18.0127 20.7701 19.5355 19.5204 20.6068 17.9171C21.6782 16.3137 22.25 14.4286 22.25 12.5002C22.2473 9.91522 21.2192 7.43686 19.3913 5.60897C17.5634 3.78108 15.085 2.75297 12.5 2.75024ZM12.5 20.7502C10.8683 20.7502 9.27326 20.2664 7.91655 19.3599C6.55984 18.4533 5.50242 17.1649 4.878 15.6574C4.25358 14.1499 4.0902 12.4911 4.40853 10.8907C4.72685 9.29041 5.51259 7.8204 6.66637 6.66661C7.82016 5.51283 9.29017 4.72709 10.8905 4.40877C12.4909 4.09044 14.1497 4.25382 15.6571 4.87824C17.1646 5.50266 18.4531 6.56008 19.3596 7.91679C20.2661 9.2735 20.75 10.8685 20.75 12.5002C20.7475 14.6875 19.8775 16.7845 18.3309 18.3311C16.7843 19.8778 14.6873 20.7478 12.5 20.7502ZM14 17.0002C14 17.1992 13.921 17.3899 13.7803 17.5306C13.6397 17.6712 13.4489 17.7502 13.25 17.7502C12.8522 17.7502 12.4706 17.5922 12.1893 17.3109C11.908 17.0296 11.75 16.6481 11.75 16.2502V12.5002C11.5511 12.5002 11.3603 12.4212 11.2197 12.2806C11.079 12.1399 11 11.9492 11 11.7502C11 11.5513 11.079 11.3606 11.2197 11.2199C11.3603 11.0793 11.5511 11.0002 11.75 11.0002C12.1478 11.0002 12.5294 11.1583 12.8107 11.4396C13.092 11.7209 13.25 12.1024 13.25 12.5002V16.2502C13.4489 16.2502 13.6397 16.3293 13.7803 16.4699C13.921 16.6106 14 16.8013 14 17.0002ZM11 8.37524C11 8.15274 11.066 7.93523 11.1896 7.75023C11.3132 7.56522 11.4889 7.42103 11.6945 7.33588C11.9001 7.25073 12.1263 7.22845 12.3445 7.27186C12.5627 7.31527 12.7632 7.42241 12.9205 7.57975C13.0778 7.73708 13.185 7.93754 13.2284 8.15577C13.2718 8.374 13.2495 8.6002 13.1644 8.80576C13.0792 9.01133 12.935 9.18703 12.75 9.31065C12.565 9.43426 12.3475 9.50024 12.125 9.50024C11.8266 9.50024 11.5405 9.38172 11.3295 9.17074C11.1185 8.95976 11 8.67361 11 8.37524Z" fill="black" fill-opacity="0.85"/>
</svg>
