<svg width="22" height="23" viewBox="0 0 22 23" fill="none" xmlns="http://www.w3.org/2000/svg">
<g clip-path="url(#clip0_14_1298)">
<path d="M0 11.5C0 14.4174 1.15892 17.2153 3.22182 19.2782C5.28473 21.3411 8.08262 22.5 11 22.5C13.9174 22.5 16.7153 21.3411 18.7782 19.2782C20.8411 17.2153 22 14.4174 22 11.5C22 8.58262 20.8411 5.78473 18.7782 3.72182C16.7153 1.65892 13.9174 0.5 11 0.5C8.08262 0.5 5.28473 1.65892 3.22182 3.72182C1.15892 5.78473 0 8.58262 0 11.5ZM8.118 15.3541C8.05458 15.4198 7.97872 15.4722 7.89484 15.5082C7.81096 15.5442 7.72075 15.5632 7.62946 15.564C7.53818 15.5648 7.44765 15.5474 7.36316 15.5128C7.27867 15.4782 7.2019 15.4272 7.13735 15.3626C7.0728 15.2981 7.02175 15.2213 6.98718 15.1368C6.95262 15.0524 6.93522 14.9618 6.93602 14.8705C6.93681 14.7793 6.95577 14.689 6.99181 14.6052C7.02784 14.5213 7.08021 14.4454 7.14587 14.382L12.7779 8.75H8.97187C8.78954 8.75 8.61467 8.67757 8.48574 8.54864C8.35681 8.41971 8.28437 8.24484 8.28437 8.0625C8.28437 7.88016 8.35681 7.70529 8.48574 7.57636C8.61467 7.44743 8.78954 7.375 8.97187 7.375H14.4375C14.6198 7.375 14.7947 7.44743 14.9236 7.57636C15.0526 7.70529 15.125 7.88016 15.125 8.0625V13.5281C15.125 13.7105 15.0526 13.8853 14.9236 14.0143C14.7947 14.1432 14.6198 14.2156 14.4375 14.2156C14.2552 14.2156 14.0803 14.1432 13.9514 14.0143C13.8224 13.8853 13.75 13.7105 13.75 13.5281V9.72213L8.118 15.3541Z" fill="#292929"/>
</g>
<defs>
<clipPath id="clip0_14_1298">
<rect width="22" height="22" fill="white" transform="matrix(-1 0 0 1 22 0.5)"/>
</clipPath>
</defs>
</svg>
