<svg width="46" height="46" viewBox="0 0 46 46" fill="none" xmlns="http://www.w3.org/2000/svg">
<g clip-path="url(#clip0_421_420)">
<path fill-rule="evenodd" clip-rule="evenodd" d="M36.7725 22.1033C37.107 22.0061 37.4572 21.9548 37.8178 21.9548C40.126 21.9548 41.9993 24.0622 41.9993 26.6588C41.9993 29.2553 40.126 31.3627 37.8178 31.3627C37.4572 31.3627 37.107 31.3115 36.7725 31.2143V22.1033Z" fill="#6558FF"/>
<path fill-rule="evenodd" clip-rule="evenodd" d="M9.22363 22.1033C8.88912 22.0061 8.53892 21.9548 8.17827 21.9548C5.87012 21.9548 3.99684 24.0622 3.99684 26.6588C3.99684 29.2553 5.87012 31.3627 8.17827 31.3627C8.53892 31.3627 8.88912 31.3115 9.22363 31.2143V22.1033Z" fill="#6558FF"/>
<path d="M16.911 25.0905C18.0657 25.0905 19.0017 24.1544 19.0017 22.9998C19.0017 21.8452 18.0657 20.9092 16.911 20.9092C15.7564 20.9092 14.8203 21.8452 14.8203 22.9998C14.8203 24.1544 15.7564 25.0905 16.911 25.0905Z" fill="#6558FF"/>
<path d="M29.456 25.0902C30.6106 25.0902 31.5467 24.1542 31.5467 22.9996C31.5467 21.8449 30.6106 20.9089 29.456 20.9089C28.3013 20.9089 27.3652 21.8449 27.3652 22.9996C27.3652 24.1542 28.3013 25.0902 29.456 25.0902Z" fill="#6558FF"/>
<path fill-rule="evenodd" clip-rule="evenodd" d="M17.9196 30.5986C19.6711 32.1354 21.4579 32.8734 23.2541 32.8755C25.0385 32.8769 26.8598 32.1477 28.6897 30.6137C29.1319 30.2433 29.1899 29.5837 28.8191 29.141C28.4482 28.699 27.7881 28.6411 27.3459 29.0116C25.9605 30.1731 24.6073 30.7859 23.2557 30.7845C21.915 30.7838 20.6065 30.1745 19.2995 29.0274C18.866 28.6467 18.2042 28.6893 17.824 29.1231C17.4437 29.5569 17.4861 30.2178 17.9196 30.5986Z" fill="#6558FF"/>
<path fill-rule="evenodd" clip-rule="evenodd" d="M8.41547 26.3934C8.41547 26.3934 7.37445 22.6917 7.72821 18.398C7.95809 15.6135 8.7716 12.5638 10.9144 10.1622C13.2322 7.5646 17.089 5.77057 23.3148 5.77057C29.5502 5.77057 33.4415 7.5254 35.8046 10.0655C37.9819 12.407 38.8443 15.3797 39.117 18.0936C39.5387 22.2748 38.5596 25.8799 38.5596 25.8799C38.4083 26.4365 38.7371 27.0114 39.2933 27.163C39.8496 27.3146 40.4249 26.9853 40.5773 26.4287C40.5773 26.4287 41.66 22.4734 41.1979 17.8845C40.8822 14.7525 39.8472 11.3421 37.3352 8.64127C34.6743 5.78233 30.3363 3.67993 23.3148 3.67993C16.2814 3.67993 11.9721 5.83721 9.35405 8.77063C6.88968 11.5329 5.90941 15.0229 5.64499 18.2268C5.25907 22.9177 6.40252 26.9605 6.40252 26.9605C6.55975 27.5158 7.13742 27.8398 7.69247 27.6831C8.24752 27.5263 8.5715 26.9487 8.41547 26.3934Z" fill="#6558FF"/>
<path fill-rule="evenodd" clip-rule="evenodd" d="M37.8179 18.3146C37.8179 14.853 35.0084 12.0427 31.5465 12.0427H14.8202C11.3584 12.0427 8.54883 14.853 8.54883 18.3146V33.9944C8.54883 37.456 11.3584 40.2663 14.8202 40.2663H31.5465C35.0084 40.2663 37.8179 37.456 37.8179 33.9944V18.3146ZM35.7281 18.3146V33.9944C35.7281 36.3021 33.8538 38.1757 31.5465 38.1757H14.8202C12.513 38.1757 10.6386 36.3021 10.6386 33.9944V18.3146C10.6386 16.0069 12.513 14.1334 14.8202 14.1334H31.5465C33.8538 14.1334 35.7281 16.0069 35.7281 18.3146Z" fill="#6558FF"/>
<path d="M12.208 42.32C14.806 42.32 16.9121 40.214 16.9121 37.616C16.9121 35.0181 14.806 32.9121 12.208 32.9121C9.61001 32.9121 7.50391 35.0181 7.50391 37.616C7.50391 40.214 9.61001 42.32 12.208 42.32Z" fill="#90BE6D"/>
</g>
<defs>
<clipPath id="clip0_421_420">
<rect width="46" height="46" fill="white"/>
</clipPath>
</defs>
</svg>
