<svg width="60" height="60" viewBox="0 0 60 60" fill="none" xmlns="http://www.w3.org/2000/svg">
<mask id="mask0_2947_627" style="mask-type:alpha" maskUnits="userSpaceOnUse" x="0" y="0" width="60" height="60">
<rect width="60" height="60" fill="#D9D9D9"/>
</mask>
<g mask="url(#mask0_2947_627)">
<path d="M26.4375 40.625L43.25 23.8125L40.625 21.1875L26.4375 35.375L19.3125 28.25L16.6875 30.875L26.4375 40.625ZM30 53.75C26.7083 53.75 23.615 53.125 20.72 51.875C17.8233 50.625 15.3125 48.9375 13.1875 46.8125C11.0625 44.6875 9.375 42.1767 8.125 39.28C6.875 36.385 6.25 33.2917 6.25 30C6.25 26.7083 6.875 23.6142 8.125 20.7175C9.375 17.8225 11.0625 15.3125 13.1875 13.1875C15.3125 11.0625 17.8233 9.375 20.72 8.125C23.615 6.875 26.7083 6.25 30 6.25C33.2917 6.25 36.3858 6.875 39.2825 8.125C42.1775 9.375 44.6875 11.0625 46.8125 13.1875C48.9375 15.3125 50.625 17.8225 51.875 20.7175C53.125 23.6142 53.75 26.7083 53.75 30C53.75 33.2917 53.125 36.385 51.875 39.28C50.625 42.1767 48.9375 44.6875 46.8125 46.8125C44.6875 48.9375 42.1775 50.625 39.2825 51.875C36.3858 53.125 33.2917 53.75 30 53.75ZM30 50C35.5833 50 40.3125 48.0625 44.1875 44.1875C48.0625 40.3125 50 35.5833 50 30C50 24.4167 48.0625 19.6875 44.1875 15.8125C40.3125 11.9375 35.5833 10 30 10C24.4167 10 19.6875 11.9375 15.8125 15.8125C11.9375 19.6875 10 24.4167 10 30C10 35.5833 11.9375 40.3125 15.8125 44.1875C19.6875 48.0625 24.4167 50 30 50Z" fill="#6558FF"/>
</g>
</svg>
