<svg width="25" height="26" viewBox="0 0 25 26" fill="none" xmlns="http://www.w3.org/2000/svg">
<path d="M12.501 9.87492C11.6722 9.87492 10.8774 10.2042 10.2913 10.7902C9.70526 11.3763 9.37602 12.1711 9.37602 12.9999C9.37602 13.8287 9.70526 14.6236 10.2913 15.2096C10.8774 15.7957 11.6722 16.1249 12.501 16.1249C13.3298 16.1249 14.1247 15.7957 14.7107 15.2096C15.2968 14.6236 15.626 13.8287 15.626 12.9999C15.626 12.1711 15.2968 11.3763 14.7107 10.7902C14.1247 10.2042 13.3298 9.87492 12.501 9.87492ZM12.501 7.79159C13.8824 7.79159 15.2071 8.34032 16.1839 9.31707C17.1606 10.2938 17.7094 11.6186 17.7094 12.9999C17.7094 14.3813 17.1606 15.706 16.1839 16.6828C15.2071 17.6595 13.8824 18.2083 12.501 18.2083C11.1197 18.2083 9.79492 17.6595 8.81817 16.6828C7.84142 15.706 7.29268 14.3813 7.29268 12.9999C7.29268 11.6186 7.84142 10.2938 8.81817 9.31707C9.79492 8.34032 11.1197 7.79159 12.501 7.79159ZM19.2719 7.53117C19.2719 7.8765 19.1347 8.20769 18.8905 8.45188C18.6463 8.69607 18.3151 8.83325 17.9698 8.83325C17.6244 8.83325 17.2932 8.69607 17.0491 8.45188C16.8049 8.20769 16.6677 7.8765 16.6677 7.53117C16.6677 7.18583 16.8049 6.85464 17.0491 6.61046C17.2932 6.36627 17.6244 6.22909 17.9698 6.22909C18.3151 6.22909 18.6463 6.36627 18.8905 6.61046C19.1347 6.85464 19.2719 7.18583 19.2719 7.53117ZM12.501 4.66659C9.92393 4.66659 9.5031 4.67388 8.30414 4.727C7.48748 4.76554 6.93956 4.87492 6.43123 5.07284C6.00583 5.22902 5.62124 5.47936 5.30623 5.80513C4.98019 6.12013 4.72951 6.50469 4.57289 6.93013C4.37498 7.44054 4.2656 7.98742 4.2281 8.80304C4.17393 9.95304 4.16664 10.3551 4.16664 12.9999C4.16664 15.578 4.17393 15.9978 4.22706 17.1968C4.2656 18.0124 4.37498 18.5614 4.57185 19.0687C4.74893 19.5218 4.95727 19.8478 5.3031 20.1937C5.65414 20.5437 5.98018 20.753 6.4281 20.926C6.94268 21.1249 7.4906 21.2353 8.3031 21.2728C9.4531 21.327 9.85519 21.3333 12.5 21.3333C15.0781 21.3333 15.4979 21.326 16.6969 21.2728C17.5114 21.2343 18.0594 21.1249 18.5687 20.928C18.9937 20.7711 19.3782 20.5209 19.6937 20.1958C20.0448 19.8458 20.2541 19.5197 20.4271 19.0708C20.625 18.5583 20.7354 18.0103 20.7729 17.1958C20.8271 16.0468 20.8333 15.6437 20.8333 12.9999C20.8333 10.4228 20.826 10.002 20.7729 8.80304C20.7344 7.98846 20.6239 7.43846 20.4271 6.93013C20.27 6.50515 20.0198 6.12073 19.6948 5.80513C19.3799 5.47892 18.9953 5.22822 18.5698 5.07179C18.0594 4.87388 17.5114 4.7645 16.6969 4.727C15.5479 4.67284 15.1469 4.66659 12.501 4.66659ZM12.501 2.58325C15.3312 2.58325 15.6844 2.59367 16.7958 2.64575C17.9041 2.69784 18.6604 2.87179 19.3239 3.13013C20.0114 3.39471 20.5906 3.75304 21.1698 4.33117C21.6994 4.85189 22.1093 5.48178 22.3708 6.177C22.6281 6.84054 22.8031 7.59679 22.8552 8.70617C22.9041 9.81659 22.9177 10.1697 22.9177 12.9999C22.9177 15.8301 22.9073 16.1833 22.8552 17.2937C22.8031 18.403 22.6281 19.1583 22.3708 19.8228C22.11 20.5184 21.7001 21.1485 21.1698 21.6687C20.6489 22.1982 20.0191 22.608 19.3239 22.8697C18.6604 23.127 17.9041 23.302 16.7958 23.3541C15.6844 23.403 15.3312 23.4166 12.501 23.4166C9.67081 23.4166 9.31768 23.4062 8.20623 23.3541C7.09789 23.302 6.34268 23.127 5.6781 22.8697C4.98261 22.6087 4.35261 22.1988 3.83227 21.6687C3.30251 21.148 2.89264 20.5181 2.63123 19.8228C2.37289 19.1593 2.19893 18.403 2.14685 17.2937C2.09685 16.1833 2.08435 15.8301 2.08435 12.9999C2.08435 10.1697 2.09477 9.81659 2.14685 8.70617C2.19893 7.59575 2.37289 6.84159 2.63123 6.177C2.89189 5.48136 3.30185 4.85129 3.83227 4.33117C4.35276 3.8012 4.98271 3.3913 5.6781 3.13013C6.34164 2.87179 7.09685 2.69784 8.20623 2.64575C9.31768 2.59679 9.67081 2.58325 12.501 2.58325Z" fill="#282828"/>
</svg>
