<svg width="69" height="24" viewBox="0 0 69 24" fill="none" xmlns="http://www.w3.org/2000/svg">
<path d="M5.62577 3.25854C5.59982 2.93333 5.47816 2.67967 5.26078 2.49756C5.04665 2.31545 4.72059 2.22439 4.2826 2.22439C4.00358 2.22439 3.77485 2.25854 3.59641 2.32683C3.42121 2.39187 3.29144 2.4813 3.20708 2.59512C3.12273 2.70894 3.07893 2.83902 3.07568 2.98537C3.06919 3.10569 3.09028 3.21463 3.13895 3.3122C3.19086 3.4065 3.27197 3.49268 3.38228 3.57073C3.49259 3.64553 3.63372 3.71382 3.80567 3.77561C3.97762 3.8374 4.18202 3.89268 4.41886 3.94146L5.23645 4.11707C5.78799 4.23415 6.26005 4.38862 6.65262 4.58049C7.0452 4.77236 7.36639 4.99837 7.61621 5.25854C7.86603 5.51545 8.04934 5.80488 8.16613 6.12683C8.28618 6.44878 8.34782 6.8 8.35106 7.18049C8.34782 7.8374 8.18398 8.3935 7.85954 8.84878C7.5351 9.30407 7.07115 9.65041 6.46769 9.8878C5.86748 10.1252 5.14561 10.2439 4.30206 10.2439C3.43581 10.2439 2.67987 10.1154 2.03423 9.85854C1.39184 9.60163 0.892208 9.2065 0.535325 8.67317C0.181686 8.13659 0.00324439 7.45041 0 6.61463H2.56956C2.58578 6.92033 2.66202 7.17724 2.79829 7.38537C2.93455 7.5935 3.12597 7.75122 3.37255 7.85854C3.62236 7.96585 3.91922 8.01951 4.26313 8.01951C4.55188 8.01951 4.79359 7.98374 4.98825 7.9122C5.18292 7.84065 5.33054 7.74146 5.43111 7.61463C5.53169 7.4878 5.5836 7.34309 5.58684 7.18049C5.5836 7.02764 5.53331 6.89431 5.43598 6.78049C5.34189 6.66341 5.18616 6.55935 4.96879 6.46829C4.75141 6.37398 4.45779 6.28618 4.08793 6.20488L3.09515 5.99024C2.21268 5.79837 1.51675 5.47805 1.00738 5.02927C0.501258 4.57724 0.249818 3.96098 0.253063 3.18049C0.249818 2.54634 0.418526 1.99187 0.759188 1.51707C1.10309 1.03902 1.5784 0.666667 2.1851 0.4C2.79504 0.133333 3.49421 0 4.2826 0C5.08721 0 5.78313 0.134959 6.37036 0.404878C6.9576 0.674797 7.41019 1.05528 7.72814 1.54634C8.04934 2.03415 8.21156 2.60488 8.2148 3.25854H5.62577Z" fill="#292929"/>
<path d="M9.38035 10.1268V0.136585H12.0862V4.17561H12.2224L15.2203 0.136585H18.3738L15.0061 4.58537L18.4517 10.1268H15.2203L12.9816 6.38049L12.0862 7.55122V10.1268H9.38035Z" fill="#292929"/>
<path d="M21.8826 0.136585V10.1268H19.1768V0.136585H21.8826Z" fill="#292929"/>
<path d="M23.165 10.1268V0.136585H25.8708V7.94146H29.9003V10.1268H23.165Z" fill="#292929"/>
<path d="M30.9941 10.1268V0.136585H33.6999V7.94146H37.7294V10.1268H30.9941Z" fill="#292929"/>
<path d="M44.1959 3.25854C44.17 2.93333 44.0483 2.67967 43.8309 2.49756C43.6168 2.31545 43.2907 2.22439 42.8527 2.22439C42.5737 2.22439 42.345 2.25854 42.1665 2.32683C41.9913 2.39187 41.8616 2.4813 41.7772 2.59512C41.6929 2.70894 41.6491 2.83902 41.6458 2.98537C41.6393 3.10569 41.6604 3.21463 41.7091 3.3122C41.761 3.4065 41.8421 3.49268 41.9524 3.57073C42.0627 3.64553 42.2039 3.71382 42.3758 3.77561C42.5478 3.8374 42.7522 3.89268 42.989 3.94146L43.8066 4.11707C44.3581 4.23415 44.8302 4.38862 45.2228 4.58049C45.6153 4.77236 45.9365 4.99837 46.1863 5.25854C46.4362 5.51545 46.6195 5.80488 46.7363 6.12683C46.8563 6.44878 46.918 6.8 46.9212 7.18049C46.918 7.8374 46.7541 8.3935 46.4297 8.84878C46.1052 9.30407 45.6413 9.65041 45.0378 9.8878C44.4376 10.1252 43.7157 10.2439 42.8722 10.2439C42.0059 10.2439 41.25 10.1154 40.6044 9.85854C39.962 9.60163 39.4623 9.2065 39.1055 8.67317C38.7518 8.13659 38.5734 7.45041 38.5701 6.61463H41.1397C41.1559 6.92033 41.2322 7.17724 41.3684 7.38537C41.5047 7.5935 41.6961 7.75122 41.9427 7.85854C42.1925 7.96585 42.4894 8.01951 42.8333 8.01951C43.122 8.01951 43.3637 7.98374 43.5584 7.9122C43.7531 7.84065 43.9007 7.74146 44.0012 7.61463C44.1018 7.4878 44.1537 7.34309 44.157 7.18049C44.1537 7.02764 44.1034 6.89431 44.0061 6.78049C43.912 6.66341 43.7563 6.55935 43.5389 6.46829C43.3215 6.37398 43.0279 6.28618 42.6581 6.20488L41.6653 5.99024C40.7828 5.79837 40.0869 5.47805 39.5775 5.02927C39.0714 4.57724 38.82 3.96098 38.8232 3.18049C38.82 2.54634 38.9887 1.99187 39.3293 1.51707C39.6732 1.03902 40.1485 0.666667 40.7552 0.4C41.3652 0.133333 42.0643 0 42.8527 0C43.6573 0 44.3533 0.134959 44.9405 0.404878C45.5277 0.674797 45.9803 1.05528 46.2983 1.54634C46.6195 2.03415 46.7817 2.60488 46.7849 3.25854H44.1959Z" fill="#292929"/>
<path d="M56.5789 0.136585H59.2848V6.53659C59.2848 7.29756 59.1031 7.9561 58.7397 8.51219C58.3796 9.06504 57.8767 9.49268 57.2311 9.79512C56.5854 10.0943 55.836 10.2439 54.9827 10.2439C54.1229 10.2439 53.3702 10.0943 52.7246 9.79512C52.079 9.49268 51.5761 9.06504 51.216 8.51219C50.8591 7.9561 50.6806 7.29756 50.6806 6.53659V0.136585H53.3865V6.30244C53.3865 6.61138 53.4546 6.8878 53.5909 7.13171C53.7271 7.37236 53.9153 7.56098 54.1554 7.69756C54.3987 7.83415 54.6745 7.90244 54.9827 7.90244C55.2942 7.90244 55.5699 7.83415 55.81 7.69756C56.0501 7.56098 56.2383 7.37236 56.3745 7.13171C56.5108 6.8878 56.5789 6.61138 56.5789 6.30244V0.136585Z" fill="#292929"/>
<path d="M60.5708 10.1268V0.136585H64.8728C65.6125 0.136585 66.2598 0.282927 66.8146 0.57561C67.3694 0.868293 67.8009 1.27967 68.1091 1.80976C68.4173 2.33984 68.5714 2.95935 68.5714 3.66829C68.5714 4.38374 68.4125 5.00325 68.0945 5.52683C67.7798 6.05041 67.3369 6.45366 66.7659 6.73659C66.1982 7.01951 65.5347 7.16098 64.7755 7.16098H62.2059V5.05366H64.2304C64.5484 5.05366 64.8193 4.99837 65.0432 4.8878C65.2703 4.77398 65.4438 4.61301 65.5639 4.40488C65.6872 4.19675 65.7488 3.95122 65.7488 3.66829C65.7488 3.38211 65.6872 3.13821 65.5639 2.93659C65.4438 2.73171 65.2703 2.57561 65.0432 2.46829C64.8193 2.35772 64.5484 2.30244 64.2304 2.30244H63.2766V10.1268H60.5708Z" fill="#292929"/>
<path d="M10.4905 16.9951C10.4646 16.6699 10.3429 16.4163 10.1255 16.2341C9.91141 16.052 9.58535 15.961 9.14736 15.961C8.86834 15.961 8.63961 15.9951 8.46117 16.0634C8.28597 16.1285 8.1562 16.2179 8.07184 16.3317C7.98749 16.4455 7.94369 16.5756 7.94045 16.722C7.93396 16.8423 7.95505 16.9512 8.00371 17.0488C8.05562 17.1431 8.13673 17.2293 8.24704 17.3073C8.35735 17.3821 8.49848 17.4504 8.67043 17.5122C8.84239 17.574 9.04678 17.6293 9.28362 17.678L10.1012 17.8537C10.6528 17.9707 11.1248 18.1252 11.5174 18.3171C11.91 18.5089 12.2312 18.735 12.481 18.9951C12.7308 19.252 12.9141 19.5415 13.0309 19.8634C13.1509 20.1854 13.2126 20.5366 13.2158 20.9171C13.2126 21.574 13.0487 22.1301 12.7243 22.5854C12.3999 23.0406 11.9359 23.387 11.3325 23.6244C10.7322 23.8618 10.0104 23.9805 9.16683 23.9805C8.30057 23.9805 7.54463 23.852 6.899 23.5951C6.25661 23.3382 5.75697 22.9431 5.40009 22.4098C5.04645 21.8732 4.86801 21.187 4.86476 20.3512H7.43432C7.45054 20.6569 7.52679 20.9138 7.66305 21.122C7.79931 21.3301 7.99073 21.4878 8.23731 21.5951C8.48713 21.7024 8.78399 21.7561 9.12789 21.7561C9.41664 21.7561 9.65835 21.7203 9.85301 21.6488C10.0477 21.5772 10.1953 21.478 10.2959 21.3512C10.3965 21.2244 10.4484 21.0797 10.4516 20.9171C10.4484 20.7642 10.3981 20.6309 10.3007 20.5171C10.2067 20.4 10.0509 20.2959 9.83355 20.2049C9.61617 20.1106 9.32256 20.0228 8.9527 19.9415L7.95991 19.7268C7.07744 19.535 6.38152 19.2146 5.87215 18.7659C5.36602 18.3138 5.11458 17.6976 5.11782 16.9171C5.11458 16.2829 5.28329 15.7285 5.62395 15.2537C5.96785 14.7756 6.44316 14.4033 7.04986 14.1366C7.65981 13.8699 8.35897 13.7366 9.14736 13.7366C9.95197 13.7366 10.6479 13.8715 11.2351 14.1415C11.8224 14.4114 12.275 14.7919 12.5929 15.2829C12.9141 15.7707 13.0763 16.3415 13.0796 16.9951H10.4905Z" fill="#292929"/>
<path d="M23.55 17.6195H20.8053C20.7858 17.3919 20.7339 17.1854 20.6495 17C20.5684 16.8146 20.4549 16.6553 20.3089 16.5219C20.1661 16.3854 19.9925 16.2813 19.7882 16.2098C19.5838 16.135 19.3518 16.0976 19.0922 16.0976C18.638 16.0976 18.2536 16.2081 17.9388 16.4293C17.6274 16.6504 17.3905 16.9675 17.2283 17.3805C17.0694 17.7935 16.9899 18.2894 16.9899 18.8683C16.9899 19.4797 17.071 19.9919 17.2332 20.4049C17.3987 20.8146 17.6371 21.1236 17.9486 21.3317C18.26 21.5366 18.6348 21.639 19.0728 21.639C19.3226 21.639 19.5464 21.6081 19.7444 21.5463C19.9423 21.4813 20.1142 21.3886 20.2602 21.2683C20.4062 21.148 20.5246 21.0033 20.6155 20.8341C20.7096 20.6618 20.7728 20.4683 20.8053 20.2537L23.55 20.2732C23.5176 20.6959 23.3992 21.1268 23.1948 21.5659C22.9904 22.0016 22.7 22.4049 22.3236 22.7756C21.9505 23.1431 21.4882 23.439 20.9367 23.6634C20.3851 23.8878 19.7444 24 19.0144 24C18.0994 24 17.2786 23.8033 16.5519 23.4098C15.8284 23.0163 15.2557 22.4374 14.834 21.6732C14.4154 20.9089 14.2062 19.974 14.2062 18.8683C14.2062 17.7561 14.4203 16.8195 14.8486 16.0585C15.2768 15.2943 15.8543 14.7171 16.5811 14.3268C17.3078 13.9333 18.1189 13.7366 19.0144 13.7366C19.6438 13.7366 20.2229 13.8228 20.7517 13.9951C21.2806 14.1675 21.7445 14.4195 22.1436 14.7512C22.5426 15.0797 22.8638 15.4846 23.1072 15.9659C23.3505 16.4472 23.4981 16.9984 23.55 17.6195Z" fill="#292929"/>
<path d="M24.7776 23.8634V13.8732H27.4834V17.7756H31.0653V13.8732H33.7711V23.8634H31.0653V19.961H27.4834V23.8634H24.7776Z" fill="#292929"/>
<path d="M44.7112 18.8683C44.7112 19.9805 44.4954 20.9187 44.0639 21.6829C43.6324 22.4439 43.05 23.0211 42.3168 23.4146C41.5836 23.8049 40.766 24 39.864 24C38.9556 24 38.1348 23.8033 37.4015 23.4098C36.6716 23.013 36.0908 22.4341 35.6593 21.6732C35.231 20.9089 35.0169 19.974 35.0169 18.8683C35.0169 17.7561 35.231 16.8195 35.6593 16.0585C36.0908 15.2943 36.6716 14.7171 37.4015 14.3268C38.1348 13.9333 38.9556 13.7366 39.864 13.7366C40.766 13.7366 41.5836 13.9333 42.3168 14.3268C43.05 14.7171 43.6324 15.2943 44.0639 16.0585C44.4954 16.8195 44.7112 17.7561 44.7112 18.8683ZM41.9275 18.8683C41.9275 18.2699 41.848 17.7659 41.689 17.3561C41.5333 16.9431 41.3013 16.6309 40.9931 16.4195C40.6881 16.2049 40.3118 16.0976 39.864 16.0976C39.4163 16.0976 39.0383 16.2049 38.7301 16.4195C38.4252 16.6309 38.1932 16.9431 38.0342 17.3561C37.8785 17.7659 37.8006 18.2699 37.8006 18.8683C37.8006 19.4667 37.8785 19.9724 38.0342 20.3854C38.1932 20.7951 38.4252 21.1073 38.7301 21.322C39.0383 21.5333 39.4163 21.639 39.864 21.639C40.3118 21.639 40.6881 21.5333 40.9931 21.322C41.3013 21.1073 41.5333 20.7951 41.689 20.3854C41.848 19.9724 41.9275 19.4667 41.9275 18.8683Z" fill="#292929"/>
<path d="M55.6184 18.8683C55.6184 19.9805 55.4026 20.9187 54.9711 21.6829C54.5396 22.4439 53.9573 23.0211 53.224 23.4146C52.4908 23.8049 51.6732 24 50.7713 24C49.8629 24 49.042 23.8033 48.3088 23.4098C47.5788 23.013 46.9981 22.4341 46.5665 21.6732C46.1383 20.9089 45.9242 19.974 45.9242 18.8683C45.9242 17.7561 46.1383 16.8195 46.5665 16.0585C46.9981 15.2943 47.5788 14.7171 48.3088 14.3268C49.042 13.9333 49.8629 13.7366 50.7713 13.7366C51.6732 13.7366 52.4908 13.9333 53.224 14.3268C53.9573 14.7171 54.5396 15.2943 54.9711 16.0585C55.4026 16.8195 55.6184 17.7561 55.6184 18.8683ZM52.8347 18.8683C52.8347 18.2699 52.7552 17.7659 52.5962 17.3561C52.4405 16.9431 52.2085 16.6309 51.9003 16.4195C51.5954 16.2049 51.219 16.0976 50.7713 16.0976C50.3236 16.0976 49.9456 16.2049 49.6374 16.4195C49.3324 16.6309 49.1004 16.9431 48.9414 17.3561C48.7857 17.7659 48.7078 18.2699 48.7078 18.8683C48.7078 19.4667 48.7857 19.9724 48.9414 20.3854C49.1004 20.7951 49.3324 21.1073 49.6374 21.322C49.9456 21.5333 50.3236 21.639 50.7713 21.639C51.219 21.639 51.5954 21.5333 51.9003 21.322C52.2085 21.1073 52.4405 20.7951 52.5962 20.3854C52.7552 19.9724 52.8347 19.4667 52.8347 18.8683Z" fill="#292929"/>
<path d="M56.8703 23.8634V13.8732H59.5761V21.678H63.6057V23.8634H56.8703Z" fill="#292929"/>
</svg>
