<svg width="25" height="25" viewBox="0 0 25 25" fill="none" xmlns="http://www.w3.org/2000/svg">
<path fill-rule="evenodd" clip-rule="evenodd" d="M1.83 1.83C0 3.6625 0 6.6075 0 12.5C0 18.3925 0 21.3387 1.83 23.1688C3.6625 25 6.6075 25 12.5 25C18.3925 25 21.3387 25 23.1688 23.1688C25 21.34 25 18.3925 25 12.5C25 6.6075 25 3.66125 23.1688 1.83C21.34 0 18.3925 0 12.5 0C6.6075 0 3.66125 0 1.83 1.83ZM16.9125 8.0875C17.0881 8.26328 17.1867 8.50156 17.1867 8.75C17.1867 8.99844 17.0881 9.23672 16.9125 9.4125L9.4125 16.9125C9.23478 17.0781 8.99972 17.1683 8.75685 17.164C8.51397 17.1597 8.28224 17.0613 8.11047 16.8895C7.93871 16.7178 7.84032 16.486 7.83603 16.2432C7.83175 16.0003 7.9219 15.7652 8.0875 15.5875L15.5875 8.0875C15.7633 7.91194 16.0016 7.81332 16.25 7.81332C16.4984 7.81332 16.7367 7.91194 16.9125 8.0875ZM10.625 9.375C10.625 9.70652 10.4933 10.0245 10.2589 10.2589C10.0245 10.4933 9.70652 10.625 9.375 10.625C9.04348 10.625 8.72554 10.4933 8.49112 10.2589C8.2567 10.0245 8.125 9.70652 8.125 9.375C8.125 9.04348 8.2567 8.72554 8.49112 8.49112C8.72554 8.2567 9.04348 8.125 9.375 8.125C9.70652 8.125 10.0245 8.2567 10.2589 8.49112C10.4933 8.72554 10.625 9.04348 10.625 9.375ZM15.625 16.875C15.9565 16.875 16.2745 16.7433 16.5089 16.5089C16.7433 16.2745 16.875 15.9565 16.875 15.625C16.875 15.2935 16.7433 14.9755 16.5089 14.7411C16.2745 14.5067 15.9565 14.375 15.625 14.375C15.2935 14.375 14.9755 14.5067 14.7411 14.7411C14.5067 14.9755 14.375 15.2935 14.375 15.625C14.375 15.9565 14.5067 16.2745 14.7411 16.5089C14.9755 16.7433 15.2935 16.875 15.625 16.875Z" fill="#FF0000"/>
</svg>
