<svg width="38" height="36" viewBox="0 0 38 36" fill="none" xmlns="http://www.w3.org/2000/svg">
<path d="M37.8425 13.5179C37.6632 12.9613 37.3332 12.4651 36.8893 12.0844C36.4453 11.7037 35.9047 11.4533 35.3272 11.3608L26.2657 9.88817L22.065 1.72527C21.7974 1.20561 21.3919 0.769687 20.8929 0.465346C20.3938 0.161004 19.8206 0 19.2361 0C18.6516 0 18.0784 0.161004 17.5794 0.465346C17.0804 0.769687 16.6748 1.20561 16.4073 1.72527L12.2066 9.88817L3.14518 11.3608C2.56828 11.4547 2.02839 11.7057 1.58475 12.0862C1.1411 12.4668 0.810852 12.9622 0.630228 13.5181C0.449604 14.0739 0.425588 14.6688 0.560814 15.2375C0.69604 15.8061 0.985283 16.3265 1.39681 16.7416L7.86214 23.2591L6.46275 32.3321C6.37296 32.91 6.44428 33.5015 6.66887 34.0414C6.89346 34.5814 7.26261 35.049 7.73574 35.3927C8.20887 35.7365 8.76763 35.9431 9.35058 35.9898C9.93353 36.0366 10.5181 35.9216 11.0399 35.6577L19.2361 31.5228L27.4326 35.6577C27.9545 35.9211 28.5389 36.0356 29.1216 35.9886C29.7043 35.9417 30.2628 35.735 30.7358 35.3914C31.2087 35.0477 31.5779 34.5804 31.8026 34.0407C32.0273 33.5011 32.099 32.9099 32.0097 32.3321L30.6104 23.2591L37.0757 16.7416C37.4885 16.3273 37.7787 15.8069 37.914 15.238C38.0493 14.669 38.0246 14.0737 37.8425 13.5179ZM35.2994 14.9798L27.9452 22.3934L29.5372 32.7137C29.5569 32.8373 29.5421 32.9639 29.4942 33.0796C29.4464 33.1953 29.3675 33.2954 29.2662 33.369C29.165 33.4426 29.0453 33.4867 28.9205 33.4964C28.7958 33.5061 28.6707 33.4812 28.5593 33.4242L19.2361 28.7208L9.91291 33.4243C9.80147 33.4813 9.67642 33.5063 9.55164 33.4966C9.42686 33.4868 9.30721 33.4427 9.20595 33.3692C9.10469 33.2956 9.02577 33.1954 8.97795 33.0798C8.93012 32.9641 8.91525 32.8375 8.93498 32.7139L10.5271 22.3934L3.17294 14.9798C3.08511 14.891 3.02341 14.7798 2.99457 14.6584C2.96574 14.5369 2.97089 14.4099 3.00947 14.2911C3.04804 14.1724 3.11855 14.0666 3.21327 13.9852C3.308 13.9039 3.42327 13.8502 3.54647 13.8301L13.8536 12.155L18.6317 2.87003C18.6889 2.75897 18.7755 2.66579 18.8821 2.60074C18.9887 2.53569 19.1112 2.50127 19.2361 2.50127C19.361 2.50127 19.4835 2.53569 19.5901 2.60074C19.6968 2.66579 19.7834 2.75897 19.8405 2.87003L24.6187 12.155L34.9258 13.8301C35.049 13.8502 35.1643 13.9039 35.259 13.9852C35.3537 14.0666 35.4242 14.1724 35.4628 14.2911C35.5014 14.4099 35.5065 14.5369 35.4777 14.6584C35.4489 14.7798 35.3872 14.891 35.2993 14.9798L35.2994 14.9798Z" fill="#FFCC00"/>
<path d="M35.2994 14.9798L27.9452 22.3934L29.5372 32.7137C29.5569 32.8373 29.5421 32.9639 29.4942 33.0796C29.4464 33.1953 29.3675 33.2954 29.2662 33.369C29.165 33.4426 29.0453 33.4867 28.9205 33.4964C28.7958 33.5061 28.6707 33.4812 28.5593 33.4242L19.2361 28.7208L9.91291 33.4243C9.80147 33.4813 9.67642 33.5063 9.55164 33.4966C9.42686 33.4868 9.30721 33.4427 9.20595 33.3692C9.10469 33.2956 9.02577 33.1954 8.97795 33.0798C8.93012 32.9641 8.91525 32.8375 8.93498 32.7139L10.5271 22.3934L3.17294 14.9798C3.08511 14.891 3.02341 14.7798 2.99457 14.6584C2.96574 14.5369 2.97089 14.4099 3.00947 14.2911C3.04804 14.1724 3.11855 14.0666 3.21327 13.9852C3.308 13.9039 3.42327 13.8502 3.54647 13.8301L13.8536 12.155L18.6317 2.87003C18.6889 2.75897 18.7755 2.66579 18.8821 2.60074C18.9887 2.53569 19.1112 2.50127 19.2361 2.50127C19.361 2.50127 19.4835 2.53569 19.5901 2.60074C19.6968 2.66579 19.7834 2.75897 19.8405 2.87003L24.6187 12.155L34.9258 13.8301C35.049 13.8502 35.1643 13.9039 35.259 13.9852C35.3537 14.0666 35.4242 14.1724 35.4628 14.2911C35.5014 14.4099 35.5065 14.5369 35.4777 14.6584C35.4489 14.7798 35.3872 14.891 35.2993 14.9798L35.2994 14.9798Z" fill="#FFCC00"/>
</svg>
