<svg width="10" height="8" viewBox="0 0 10 8" fill="none" xmlns="http://www.w3.org/2000/svg">
<g id="artwork">
<g clip-path="url(#clip0_1497_5919)">
<rect y="0.5" width="10" height="7" rx="0.909091" fill="#1A47B8"/>
<path id="vector" fill-rule="evenodd" clip-rule="evenodd" d="M1.0638 0.5H0V1.66667L8.93043 7.5L10 7.5V6.33333L1.0638 0.5Z" fill="white"/>
<path id="vector_2" d="M0.354809 0.5L10 6.81653V7.5H9.65351L0 1.17693V0.5H0.354809Z" fill="#F93939"/>
<path id="vector_3" fill-rule="evenodd" clip-rule="evenodd" d="M9.04762 0.5H10V1.66667C10 1.66667 3.81419 5.55309 0.952381 7.5H0V6.33333L9.04762 0.5Z" fill="white"/>
<path id="vector_4" d="M10 0.5H9.67703L0 6.82198V7.5H0.354809L10 1.18204V0.5Z" fill="#F93939"/>
<path id="vector_5" fill-rule="evenodd" clip-rule="evenodd" d="M3.6367 0.5H6.37161V2.65918H10V5.33939H6.37161V7.5H3.6367V5.33939H0V2.65918H3.6367V0.5Z" fill="white"/>
<path id="vector_6" fill-rule="evenodd" clip-rule="evenodd" d="M4.21053 0.5H5.78947V3.19231H10V4.80769H5.78947V7.5H4.21053V4.80769H0V3.19231H4.21053V0.5Z" fill="#F93939"/>
</g>
</g>
<defs>
<clipPath id="clip0_1497_5919">
<rect y="0.5" width="10" height="7" rx="0.909091" fill="white"/>
</clipPath>
</defs>
</svg>
